<?xml version="1.0" encoding="UTF-8"?><svg xmlns="http://www.w3.org/2000/svg" xmlns:xlink="http://www.w3.org/1999/xlink" viewBox="0 0 450 450"><defs><style>.f{fill:#eac75a;}.g{clip-path:url(#e);}.h{clip-path:url(#d);}.i{fill:none;}</style><clipPath id="d"><path class="i" d="M450,225c0,124.26-100.74,225-225,225S0,349.26,0,225,100.74,0,225,0s225,100.74,225,225ZM225,50c-96.65,0-175,78.35-175,175s78.35,175,175,175,175-78.35,175-175S321.65,50,225,50Z"/></clipPath><clipPath id="e"><circle class="i" cx="225" cy="225" r="225"/></clipPath></defs><g id="a"/><g id="b"><g id="c"><g class="h"><g class="g"><polygon class="f" points="485 225 412.14 258.04 469.38 313.95 389.6 319.99 424.17 392.14 347.12 370.57 355.04 450.19 290 403.6 270.12 481.09 225 415 179.88 481.09 160 403.6 94.96 450.18 102.88 370.57 25.83 392.14 60.4 319.99 -19.38 313.95 37.86 258.04 -35 225 37.86 191.96 -19.38 136.05 60.4 130.01 25.83 57.86 102.88 79.43 94.96 -.19 160 46.4 179.88 -31.09 225 35 270.12 -31.09 290 46.4 355.04 -.18 347.12 79.43 424.17 57.86 389.6 130.01 469.38 136.05 412.14 191.96 485 225"/></g><circle class="f" cx="225" cy="225" r="200"/></g></g></g></svg>