<?xml version="1.0" encoding="UTF-8"?><svg xmlns="http://www.w3.org/2000/svg" viewBox="0 0 516.57 516.57"><defs><style>.d{fill:#eac75a;}</style></defs><g id="a"/><g id="b"><g id="c"><path class="d" d="M483.01,277.2c.02-.26,.04-.51,.07-.77,.11-1.32,.2-2.65,.28-3.98,.05-.78,.1-1.57,.14-2.35,.04-.79,.07-1.57,.11-2.36,.06-1.33,.1-2.66,.14-3.98,0-.26,.01-.52,.02-.78,.07-3.28,.07-6.54,0-9.8l32.82-5.68-3.29-31.34-33.21,1.26c-.65-3.53-1.39-7.06-2.22-10.58-.06-.25-.12-.5-.18-.75-.31-1.29-.63-2.58-.96-3.88-.19-.76-.39-1.52-.59-2.28-.2-.76-.42-1.52-.63-2.28-.36-1.28-.72-2.56-1.1-3.83-.07-.25-.15-.49-.22-.74-.95-3.14-1.95-6.25-3.03-9.32l29.45-15.55-12.82-28.79-31.19,11.46c-1.71-3.16-3.5-6.28-5.38-9.37-.13-.22-.27-.44-.4-.66-.69-1.13-1.4-2.26-2.11-3.38-.42-.67-.85-1.33-1.27-1.99-.43-.66-.86-1.31-1.3-1.97-.74-1.11-1.48-2.21-2.23-3.31-.15-.21-.29-.42-.44-.64-1.87-2.69-3.79-5.34-5.76-7.93l23.21-23.89-21.08-23.42-26.12,20.54c-2.6-2.47-5.27-4.89-8.01-7.25-.2-.17-.39-.34-.59-.51-1.01-.86-2.03-1.72-3.05-2.56-.61-.5-1.22-1.01-1.83-1.5-.61-.49-1.22-.98-1.84-1.47-1.05-.83-2.1-1.65-3.15-2.46-.2-.15-.41-.31-.61-.46-2.61-1.98-5.25-3.91-7.93-5.77l14.69-29.89-27.29-15.75-18.5,27.61c-3.24-1.55-6.53-3.02-9.87-4.42-.23-.1-.47-.2-.7-.3-1.23-.51-2.46-1.01-3.71-1.5-.73-.29-1.46-.58-2.19-.86-.74-.28-1.47-.56-2.21-.83-1.25-.47-2.5-.92-3.75-1.36-.24-.09-.49-.17-.73-.25-3.09-1.08-6.2-2.09-9.32-3.03l4.74-32.97-30.82-6.55-9.06,31.97c-3.56-.47-7.14-.86-10.75-1.16-.26-.02-.52-.04-.77-.07-1.32-.11-2.65-.2-3.98-.28-.78-.05-1.57-.1-2.35-.14-.79-.04-1.57-.07-2.36-.11-1.33-.06-2.66-.1-3.98-.14-.26,0-.52-.01-.77-.02-3.28-.07-6.55-.07-9.8,0L247.48,0l-31.34,3.29,1.26,33.21c-3.53,.65-7.06,1.39-10.58,2.22-.25,.06-.5,.12-.75,.18-1.29,.31-2.58,.63-3.87,.96-.76,.2-1.53,.39-2.29,.6-.76,.2-1.51,.41-2.27,.63-1.28,.36-2.56,.72-3.84,1.1-.25,.07-.49,.15-.74,.22-3.14,.95-6.25,1.95-9.32,3.03l-15.55-29.45-28.79,12.82,11.46,31.19c-3.16,1.71-6.28,3.51-9.38,5.38-.22,.13-.44,.26-.66,.4-1.13,.69-2.26,1.4-3.39,2.12-.66,.42-1.33,.84-1.99,1.27-.66,.43-1.32,.87-1.98,1.3-1.11,.73-2.21,1.48-3.3,2.23-.21,.15-.43,.3-.64,.45-2.69,1.87-5.34,3.78-7.93,5.76l-23.89-23.21-23.42,21.08,20.54,26.12c-2.47,2.6-4.89,5.27-7.25,8.01-.17,.2-.34,.39-.51,.59-.86,1.01-1.72,2.03-2.56,3.05-.5,.61-1.01,1.22-1.5,1.83-.49,.61-.98,1.23-1.47,1.84-.83,1.04-1.65,2.09-2.46,3.15-.16,.2-.31,.41-.47,.62-1.98,2.61-3.91,5.25-5.76,7.93l-29.89-14.69-15.75,27.29,27.61,18.5c-1.55,3.24-3.02,6.53-4.42,9.86-.1,.24-.2,.47-.3,.71-.51,1.23-1.01,2.46-1.5,3.7-.29,.73-.58,1.46-.86,2.2-.28,.74-.56,1.47-.83,2.21-.46,1.25-.92,2.5-1.36,3.75-.09,.24-.17,.49-.25,.73-1.08,3.09-2.09,6.2-3.03,9.32l-32.97-4.74-6.55,30.82,31.97,9.06c-.47,3.56-.86,7.14-1.16,10.74-.02,.26-.04,.52-.07,.78-.11,1.32-.2,2.65-.28,3.97-.05,.79-.1,1.57-.14,2.36-.04,.78-.07,1.57-.11,2.35-.06,1.33-.1,2.66-.14,3.99,0,.26-.01,.51-.02,.77-.07,3.28-.08,6.55,0,9.8L0,269.09l3.29,31.34,33.21-1.26c.65,3.53,1.39,7.06,2.22,10.58,.06,.25,.12,.5,.18,.75,.31,1.29,.63,2.59,.96,3.88,.19,.76,.39,1.52,.59,2.28,.2,.76,.42,1.52,.63,2.28,.36,1.28,.72,2.56,1.1,3.83,.07,.25,.15,.49,.22,.74,.95,3.14,1.95,6.25,3.03,9.32l-29.45,15.55,12.82,28.79,31.19-11.46c1.71,3.16,3.51,6.28,5.38,9.37,.13,.22,.27,.44,.4,.66,.69,1.13,1.4,2.26,2.11,3.38,.42,.67,.85,1.33,1.27,1.99,.43,.66,.86,1.31,1.3,1.97,.74,1.11,1.48,2.21,2.23,3.31,.15,.21,.3,.42,.44,.64,1.87,2.69,3.79,5.34,5.76,7.93l-23.21,23.89,21.08,23.42,26.12-20.54c2.6,2.47,5.27,4.89,8.01,7.25,.2,.17,.39,.34,.59,.51,1.01,.86,2.03,1.72,3.05,2.57,.61,.5,1.22,1,1.83,1.5,.61,.49,1.22,.98,1.84,1.47,1.05,.83,2.1,1.65,3.15,2.46,.2,.15,.41,.31,.61,.46,2.61,1.98,5.25,3.91,7.93,5.77l-14.69,29.89,27.29,15.75,18.5-27.61c3.24,1.55,6.53,3.02,9.87,4.42,.23,.1,.47,.2,.7,.3,1.23,.51,2.47,1.01,3.71,1.5,.73,.29,1.46,.58,2.19,.86,.74,.28,1.47,.56,2.21,.83,1.25,.46,2.5,.92,3.75,1.36,.24,.09,.49,.17,.73,.25,3.09,1.08,6.2,2.09,9.32,3.03l-4.74,32.97,30.82,6.55,9.06-31.97c3.56,.47,7.14,.86,10.75,1.16,.26,.02,.51,.04,.77,.07,1.32,.11,2.65,.2,3.98,.28,.78,.05,1.57,.1,2.35,.14,.79,.04,1.57,.07,2.36,.11,1.33,.06,2.66,.1,3.98,.14,.26,0,.52,.01,.78,.02,3.28,.07,6.54,.07,9.8,0l5.68,32.82,31.34-3.29-1.26-33.21c3.53-.65,7.06-1.39,10.58-2.22,.25-.06,.5-.12,.75-.18,1.29-.31,2.58-.63,3.87-.96,.76-.2,1.53-.39,2.29-.6,.76-.2,1.51-.41,2.27-.63,1.28-.36,2.56-.72,3.84-1.1,.25-.07,.49-.15,.74-.22,3.14-.95,6.25-1.95,9.32-3.03l15.55,29.45,28.79-12.82-11.46-31.19c3.16-1.71,6.28-3.5,9.37-5.38,.22-.13,.44-.27,.66-.4,1.13-.69,2.26-1.4,3.38-2.11,.67-.42,1.33-.85,1.99-1.27,.66-.43,1.31-.86,1.97-1.3,1.11-.74,2.21-1.48,3.31-2.23,.21-.15,.42-.29,.64-.44,2.69-1.87,5.34-3.79,7.93-5.76l23.89,23.21,23.42-21.08-20.54-26.12c2.47-2.6,4.89-5.27,7.25-8.01,.17-.2,.34-.39,.51-.59,.86-1.01,1.72-2.03,2.56-3.05,.5-.61,1.01-1.22,1.5-1.83,.49-.61,.98-1.22,1.47-1.84,.83-1.05,1.65-2.1,2.46-3.15,.15-.2,.31-.41,.46-.61,1.98-2.61,3.91-5.25,5.77-7.93l29.89,14.69,15.75-27.29-27.61-18.5c1.55-3.24,3.02-6.53,4.42-9.87,.1-.23,.2-.47,.3-.7,.51-1.23,1.01-2.47,1.5-3.71,.29-.73,.58-1.46,.86-2.19,.28-.74,.56-1.47,.83-2.22,.46-1.25,.92-2.5,1.36-3.75,.09-.24,.17-.49,.25-.73,1.08-3.09,2.09-6.2,3.03-9.32l32.97,4.74,6.55-30.82-31.97-9.06c.47-3.56,.86-7.14,1.16-10.75ZM157.59,200.15c19.73-34.17,54.17-54.53,90.7-57.71v41.54c-22.23,3.01-42.87,15.89-54.95,36.81-12.3,21.3-12.96,46.12-3.96,67.11l-35.91,20.73c-16.02-33.44-15.82-73.95,4.12-108.48Zm108.2,45.15c7.17,4.14,9.63,13.32,5.49,20.49s-13.32,9.63-20.49,5.49c-7.17-4.14-9.63-13.32-5.49-20.49s13.32-9.63,20.49-5.49Zm-66.13,59.76c5.68,7.13,12.75,13.35,21.13,18.18,33.36,19.26,75.36,9.97,97.74-20.29l35.91,20.73c-33.91,49.96-101.17,65.97-154.29,35.3-14.89-8.6-27.15-19.99-36.52-33.13l36.03-20.8Zm164.56,1.19l-36.01-20.79c13.23-33.92,.08-73.35-32.42-92.11-8.74-5.05-18.08-8.12-27.5-9.38v-41.53c16.46,1.41,32.88,6.36,48.14,15.17,52.27,30.18,72.24,94.82,47.79,148.65ZM85.08,158.29c35.22-61,97.73-96.43,163.21-99.76v49.99l-14.5,1.52,.73,19.31c-2.05,.38-4.1,.81-6.15,1.29-.15,.03-.29,.07-.44,.1-.75,.18-1.5,.37-2.25,.56-.44,.11-.89,.23-1.33,.35-.44,.12-.88,.24-1.32,.36-.75,.21-1.49,.42-2.23,.64-.14,.04-.29,.09-.43,.13-1.82,.55-3.63,1.13-5.42,1.76l-9.04-17.12-16.74,7.45,6.66,18.13c-1.84,1-3.65,2.04-5.45,3.13-.13,.08-.25,.15-.38,.23-.66,.4-1.32,.81-1.97,1.23-.39,.24-.77,.49-1.15,.74-.38,.25-.77,.5-1.15,.76-.64,.43-1.28,.86-1.92,1.3-.12,.09-.25,.17-.37,.26-1.56,1.09-3.1,2.2-4.61,3.35l-13.89-13.49-13.61,12.26,11.94,15.19c-1.44,1.51-2.84,3.07-4.22,4.66-.1,.11-.2,.23-.3,.34-.5,.59-1,1.18-1.49,1.77-.29,.35-.58,.71-.87,1.06-.29,.35-.57,.71-.86,1.07-.48,.61-.96,1.22-1.43,1.83-.09,.12-.18,.24-.27,.36-1.15,1.52-2.27,3.05-3.35,4.61l-17.38-8.54-9.16,15.86,16.05,10.76c-.9,1.88-1.76,3.8-2.57,5.73-.06,.14-.12,.28-.17,.41-.3,.71-.59,1.43-.87,2.15-.17,.43-.34,.85-.5,1.28-.16,.43-.32,.86-.48,1.29-.27,.72-.53,1.45-.79,2.18-.05,.14-.1,.28-.15,.43-.63,1.8-1.22,3.61-1.76,5.42l-19.17-2.75-3.81,17.92,18.59,5.27c-.27,2.07-.5,4.15-.67,6.25-.01,.15-.03,.3-.04,.45-.06,.77-.11,1.54-.16,2.31-.03,.46-.06,.92-.08,1.37-.02,.46-.04,.91-.06,1.37-.03,.77-.06,1.55-.08,2.32,0,.15,0,.3,0,.45-.04,1.91-.04,3.81,0,5.7l-19.08,3.3,1.91,18.22,19.31-.73c.38,2.05,.81,4.1,1.29,6.15,.03,.15,.07,.29,.1,.44,.18,.75,.37,1.5,.56,2.25,.11,.44,.23,.88,.35,1.33,.12,.44,.24,.88,.37,1.33,.21,.75,.42,1.49,.64,2.23,.04,.14,.09,.29,.13,.43,.55,1.82,1.13,3.63,1.76,5.42l-17.12,9.04,6.65,14.94-43.24,24.96c-30.38-58.56-31.18-130.91,4.26-192.28Zm73.21,273.21c-28.1-16.22-50.76-38.23-67.37-63.66l59.83-34.54c1.05,1.51,2.13,3,3.23,4.45l-13.49,13.89,12.26,13.61,15.19-11.94c1.51,1.44,3.07,2.84,4.66,4.22,.11,.1,.23,.2,.34,.29,.59,.5,1.18,1,1.78,1.49,.35,.29,.71,.58,1.06,.87,.35,.29,.71,.57,1.07,.85,.61,.48,1.22,.96,1.83,1.43,.12,.09,.24,.18,.35,.27,1.52,1.15,3.05,2.27,4.61,3.35l-8.54,17.38,15.87,9.16,10.76-16.05c1.88,.9,3.8,1.76,5.74,2.57,.14,.06,.27,.12,.41,.17,.71,.3,1.43,.59,2.16,.87,.42,.17,.85,.34,1.27,.5,.43,.16,.86,.32,1.29,.48,.72,.27,1.45,.53,2.18,.79,.14,.05,.28,.1,.43,.15,1.8,.63,3.61,1.22,5.42,1.76l-2.75,19.17,17.92,3.81,5.27-18.59c2.07,.27,4.15,.5,6.25,.67,.15,.01,.3,.03,.45,.04,.77,.06,1.54,.12,2.32,.16,.46,.03,.91,.06,1.37,.08,.46,.02,.92,.04,1.37,.06,.77,.03,1.55,.06,2.32,.08,.15,0,.3,0,.45,0,1.91,.04,3.8,.04,5.7,0l3.3,19.08,18.22-1.91-.73-19.31c2.05-.38,4.1-.81,6.15-1.29,.15-.03,.29-.07,.44-.1,.75-.18,1.5-.37,2.25-.56,.44-.11,.89-.23,1.33-.35,.44-.12,.88-.24,1.32-.36,.75-.21,1.49-.42,2.23-.64,.14-.04,.29-.09,.43-.13,1.82-.55,3.63-1.13,5.42-1.76l9.04,17.12,16.74-7.45-6.66-18.13c1.84-.99,3.65-2.04,5.45-3.13,.13-.08,.26-.16,.39-.23,.66-.4,1.31-.81,1.97-1.23,.39-.25,.77-.49,1.16-.74,.38-.25,.76-.5,1.14-.75,.65-.43,1.29-.86,1.92-1.3,.12-.09,.25-.17,.37-.26,1.57-1.09,3.1-2.2,4.61-3.35l13.89,13.49,13.61-12.26-11.94-15.19c1.44-1.51,2.84-3.07,4.22-4.66,.1-.11,.2-.23,.3-.34,.5-.59,1-1.18,1.49-1.77,.29-.35,.58-.71,.87-1.06,.29-.35,.57-.71,.85-1.07,.48-.61,.96-1.22,1.43-1.83,.09-.12,.18-.24,.27-.35,1.15-1.52,2.27-3.05,3.35-4.61l17.38,8.54,.44-.77,43.13,24.9c-57.13,89.97-175.58,119.68-268.76,65.89Zm278.64-83.28l-59.81-34.53c.7-1.51,1.39-3.03,2.03-4.57,.06-.14,.12-.27,.17-.41,.3-.71,.59-1.43,.87-2.16,.17-.42,.34-.85,.5-1.27,.16-.43,.32-.86,.48-1.29,.27-.72,.53-1.45,.79-2.18,.05-.14,.1-.28,.15-.43,.63-1.8,1.22-3.6,1.76-5.42l19.17,2.75,3.81-17.92-18.59-5.27c.27-2.07,.5-4.15,.67-6.25,.01-.15,.03-.3,.04-.45,.06-.77,.12-1.54,.16-2.32,.03-.46,.06-.91,.08-1.37,.02-.46,.04-.92,.06-1.37,.03-.77,.06-1.55,.08-2.32,0-.15,0-.3,0-.45,.04-1.9,.04-3.8,0-5.7l19.08-3.3-1.91-18.22-19.31,.73c-.38-2.05-.81-4.1-1.29-6.15-.03-.15-.07-.29-.1-.44-.18-.75-.37-1.5-.56-2.25-.11-.44-.23-.88-.35-1.33-.12-.44-.24-.88-.37-1.33-.21-.75-.42-1.49-.64-2.23-.04-.14-.09-.29-.13-.43-.55-1.82-1.13-3.63-1.76-5.42l17.12-9.04-7.45-16.74-18.13,6.66c-.99-1.84-2.04-3.65-3.13-5.45-.08-.13-.16-.26-.23-.39-.4-.66-.81-1.31-1.23-1.97-.25-.39-.49-.77-.74-1.16-.25-.38-.5-.76-.75-1.14-.43-.65-.86-1.29-1.3-1.92-.09-.12-.17-.25-.26-.37-1.09-1.57-2.2-3.1-3.35-4.61l13.49-13.89-12.26-13.61-15.19,11.94c-1.51-1.44-3.07-2.84-4.66-4.22-.11-.1-.23-.2-.34-.3-.59-.5-1.18-1-1.77-1.49-.35-.29-.71-.58-1.06-.87-.35-.29-.71-.57-1.07-.85-.61-.48-1.22-.96-1.83-1.43-.12-.09-.24-.18-.35-.27-1.52-1.15-3.05-2.27-4.61-3.35l8.54-17.38-15.87-9.16-10.76,16.05c-1.88-.9-3.8-1.76-5.74-2.57-.14-.06-.27-.12-.41-.17-.71-.3-1.43-.59-2.15-.87-.42-.17-.85-.34-1.27-.5-.43-.16-.86-.32-1.29-.48-.73-.27-1.45-.54-2.18-.79-.14-.05-.28-.1-.43-.15-1.8-.63-3.61-1.22-5.42-1.76l2.75-19.17-17.92-3.81-5.27,18.59c-2.07-.27-4.15-.5-6.25-.67-.15-.01-.3-.03-.45-.04-.18-.01-.36-.02-.55-.04V58.5c30.71,1.51,61.54,10.15,90,26.58,92.33,53.31,126.07,169.12,78.64,263.13Z"/></g></g></svg>