<?xml version="1.0" encoding="UTF-8"?><svg xmlns="http://www.w3.org/2000/svg" viewBox="0 0 516 516"><defs><style>.d{fill:#eac75a;}</style></defs><g id="a"/><g id="b"><g id="c"><path class="d" d="M479.66,299.54c.24-1.3,.47-2.61,.69-3.93,.13-.78,.26-1.56,.39-2.33,.12-.77,.24-1.55,.35-2.33,.2-1.32,.38-2.64,.55-3.96,.03-.25,.06-.51,.1-.76,.41-3.25,.76-6.51,1.03-9.75l33.23-2.22v-31.51l-33.16-2.22c-.28-3.58-.65-7.17-1.1-10.76-.03-.25-.06-.5-.09-.76-.17-1.32-.36-2.64-.55-3.96-.11-.78-.23-1.55-.35-2.33-.12-.78-.25-1.56-.39-2.33-.22-1.31-.45-2.62-.69-3.93-.05-.25-.1-.51-.15-.76-.61-3.22-1.29-6.42-2.04-9.59l30.92-12.38-9.74-29.97-32.22,8.14c-1.37-3.32-2.83-6.61-4.37-9.89-.11-.23-.22-.47-.33-.7-.57-1.2-1.15-2.4-1.75-3.59-.35-.7-.7-1.41-1.06-2.11-.36-.7-.72-1.4-1.09-2.1-.62-1.18-1.24-2.35-1.87-3.52-.12-.23-.25-.45-.37-.68-1.58-2.87-3.21-5.7-4.9-8.49l25.58-21.33-18.52-25.49-28.13,17.69c-2.33-2.73-4.74-5.42-7.21-8.05-.18-.19-.35-.38-.53-.56-.91-.96-1.84-1.92-2.77-2.87-.55-.56-1.1-1.13-1.66-1.68-.56-.55-1.12-1.1-1.68-1.65-.95-.93-1.91-1.86-2.87-2.77-.19-.18-.37-.35-.56-.53-2.39-2.25-4.81-4.44-7.28-6.56l17.74-28.19-25.49-18.52-21.28,25.52c-3.06-1.88-6.18-3.69-9.35-5.43-.23-.12-.45-.25-.68-.37-1.17-.63-2.34-1.26-3.52-1.87-.7-.37-1.4-.73-2.1-1.09-.7-.36-1.4-.71-2.11-1.06-1.19-.59-2.39-1.18-3.59-1.75-.23-.11-.47-.22-.7-.33-2.97-1.4-5.95-2.73-8.95-3.99l8.16-32.29-29.97-9.74-12.35,30.85c-3.49-.84-7.01-1.6-10.57-2.27-.25-.05-.51-.1-.76-.15-1.3-.24-2.61-.47-3.93-.69-.78-.13-1.56-.26-2.33-.39-.77-.12-1.55-.24-2.33-.35-1.32-.2-2.64-.38-3.96-.55-.25-.03-.5-.06-.76-.09-3.25-.41-6.51-.76-9.75-1.03l-2.22-33.23h-31.51l-2.22,33.16c-3.58,.28-7.17,.65-10.76,1.1-.25,.03-.5,.06-.76,.09-1.32,.17-2.64,.36-3.96,.55-.78,.11-1.55,.23-2.33,.35-.78,.12-1.56,.25-2.33,.39-1.31,.22-2.62,.45-3.93,.69-.25,.05-.51,.1-.76,.15-3.22,.61-6.42,1.29-9.59,2.04l-12.38-30.92-29.97,9.74,8.14,32.22c-3.32,1.37-6.61,2.83-9.89,4.37-.23,.11-.47,.22-.7,.33-1.2,.57-2.4,1.15-3.59,1.75-.7,.35-1.41,.7-2.11,1.06-.7,.36-1.4,.72-2.1,1.09-1.18,.62-2.35,1.24-3.52,1.87-.23,.12-.45,.25-.68,.37-2.87,1.58-5.7,3.21-8.49,4.9l-21.33-25.58-25.49,18.52,17.69,28.13c-2.73,2.33-5.42,4.74-8.05,7.21-.19,.18-.38,.35-.56,.53-.97,.91-1.92,1.84-2.87,2.77-.56,.55-1.12,1.1-1.68,1.65-.56,.56-1.11,1.12-1.66,1.68-.93,.95-1.86,1.91-2.77,2.87-.18,.19-.35,.37-.53,.56-2.25,2.39-4.44,4.81-6.56,7.28l-28.19-17.74-18.52,25.49,25.52,21.28c-1.88,3.06-3.69,6.18-5.43,9.35-.12,.23-.25,.45-.37,.68-.63,1.17-1.26,2.34-1.87,3.52-.37,.7-.73,1.4-1.09,2.1-.36,.7-.71,1.4-1.06,2.11-.59,1.19-1.18,2.39-1.75,3.59-.11,.23-.22,.47-.33,.7-1.4,2.97-2.73,5.95-3.99,8.95l-32.29-8.16-9.74,29.97,30.85,12.35c-.84,3.49-1.6,7.01-2.27,10.57-.05,.25-.1,.51-.15,.76-.24,1.3-.47,2.61-.69,3.93-.13,.78-.26,1.56-.39,2.33-.12,.77-.24,1.55-.35,2.33-.2,1.32-.38,2.64-.55,3.96-.03,.25-.06,.5-.09,.76-.41,3.25-.76,6.51-1.03,9.75L0,241.75v31.51l33.16,2.22c.28,3.58,.65,7.17,1.1,10.76,.03,.25,.06,.51,.1,.76,.17,1.32,.36,2.64,.55,3.96,.11,.78,.23,1.55,.35,2.33,.12,.78,.25,1.56,.39,2.33,.22,1.31,.45,2.62,.69,3.93,.05,.25,.1,.51,.15,.76,.61,3.22,1.29,6.42,2.04,9.59l-30.92,12.38,9.74,29.97,32.22-8.14c1.37,3.32,2.83,6.61,4.37,9.88,.11,.23,.22,.47,.33,.7,.57,1.2,1.15,2.39,1.75,3.59,.35,.7,.7,1.41,1.06,2.11,.36,.7,.72,1.4,1.09,2.1,.62,1.18,1.24,2.35,1.87,3.52,.12,.23,.25,.45,.37,.68,1.58,2.87,3.21,5.71,4.9,8.49l-25.58,21.33,18.52,25.49,28.13-17.69c2.33,2.73,4.74,5.42,7.21,8.05,.18,.19,.35,.38,.53,.56,.91,.96,1.84,1.92,2.77,2.87,.55,.56,1.1,1.13,1.66,1.68,.56,.55,1.12,1.1,1.68,1.65,.95,.93,1.91,1.86,2.87,2.77,.19,.18,.37,.35,.56,.53,2.39,2.25,4.81,4.44,7.28,6.56l-17.74,28.19,25.49,18.52,21.28-25.52c3.06,1.88,6.18,3.69,9.35,5.43,.22,.12,.45,.25,.67,.37,1.17,.64,2.34,1.26,3.53,1.88,.7,.36,1.39,.73,2.09,1.08,.7,.36,1.41,.71,2.12,1.06,1.19,.59,2.38,1.17,3.58,1.74,.24,.11,.47,.22,.71,.33,2.96,1.4,5.95,2.73,8.95,3.99l-8.16,32.29,29.97,9.74,12.35-30.85c3.49,.84,7.01,1.6,10.57,2.27,.25,.05,.51,.1,.76,.15,1.3,.24,2.61,.47,3.93,.69,.78,.13,1.56,.26,2.33,.39,.78,.12,1.55,.24,2.33,.35,1.32,.2,2.64,.38,3.95,.55,.26,.03,.51,.06,.77,.1,3.25,.41,6.5,.76,9.75,1.03l2.22,33.23h31.51l2.22-33.16c3.58-.28,7.17-.65,10.75-1.1,.26-.03,.51-.06,.77-.1,1.32-.17,2.64-.36,3.95-.55,.78-.11,1.56-.23,2.33-.35,.78-.12,1.56-.25,2.33-.39,1.31-.22,2.62-.45,3.93-.69,.25-.05,.51-.1,.76-.15,3.22-.61,6.42-1.29,9.59-2.04l12.38,30.92,29.97-9.74-8.14-32.22c3.32-1.37,6.61-2.83,9.88-4.37,.24-.11,.47-.22,.71-.33,1.2-.57,2.39-1.15,3.58-1.74,.71-.35,1.41-.7,2.12-1.06,.7-.36,1.4-.72,2.09-1.08,1.18-.62,2.36-1.24,3.53-1.88,.22-.12,.45-.25,.67-.37,2.87-1.58,5.71-3.21,8.49-4.9l21.33,25.58,25.49-18.52-17.69-28.13c2.73-2.33,5.42-4.74,8.05-7.21,.19-.18,.38-.35,.56-.53,.97-.91,1.92-1.84,2.87-2.77,.56-.55,1.12-1.1,1.68-1.65,.56-.56,1.11-1.12,1.66-1.68,.93-.95,1.86-1.91,2.77-2.87,.18-.19,.35-.37,.53-.56,2.25-2.39,4.44-4.81,6.56-7.28l28.19,17.74,18.52-25.49-25.52-21.28c1.88-3.06,3.69-6.18,5.43-9.35,.12-.23,.25-.45,.37-.68,.63-1.17,1.26-2.34,1.87-3.52,.37-.7,.73-1.4,1.09-2.1,.36-.7,.71-1.4,1.06-2.11,.59-1.19,1.18-2.39,1.75-3.59,.11-.23,.22-.47,.33-.7,1.4-2.96,2.73-5.95,3.99-8.95l32.29,8.16,9.74-29.97-30.85-12.35c.84-3.49,1.6-7.01,2.27-10.57,.05-.25,.1-.51,.15-.76Zm-399.78,49.5c-13.99-27.31-21.88-58.25-21.88-91.04,0-107.13,84.24-194.59,190.09-199.75v125.43c-36.73,4.85-65.09,36.27-65.09,74.33,0,10.02,1.98,19.57,5.54,28.3l-108.67,62.74Zm178.12-106.04c8.28,0,15,6.72,15,15s-6.72,15-15,15-15-6.72-15-15,6.72-15,15-15Zm0,215c-70.52,0-132.51-36.5-168.12-91.64l108.63-62.72c13.71,17.84,35.25,29.36,59.49,29.36s45.6-11.42,59.32-29.13l108.65,62.73c-35.64,55-97.55,91.4-167.96,91.4Zm177.99-108.71l-108.64-62.72c3.63-8.81,5.65-18.45,5.65-28.57,0-38-28.26-69.37-64.91-74.31V58.25c105.77,5.26,189.91,92.67,189.91,199.75,0,32.89-7.94,63.92-22.01,91.29Z"/></g></g></svg>