<?xml version="1.0" encoding="UTF-8"?><svg xmlns="http://www.w3.org/2000/svg" viewBox="0 0 516 516"><defs><style>.d{fill:#eac75a;}</style></defs><g id="a"/><g id="b"><g id="c"><path class="d" d="M479.66,299.54c.24-1.3,.47-2.61,.69-3.93,.13-.78,.26-1.56,.39-2.33,.12-.77,.24-1.55,.35-2.33,.2-1.32,.38-2.64,.55-3.96,.03-.25,.06-.5,.09-.76,.41-3.25,.76-6.51,1.03-9.75l33.23-2.22v-31.51l-33.16-2.22c-.28-3.58-.65-7.17-1.1-10.76-.03-.25-.06-.5-.09-.76-.17-1.32-.36-2.64-.55-3.96-.11-.78-.23-1.55-.35-2.33-.12-.78-.25-1.56-.39-2.33-.22-1.31-.45-2.62-.69-3.93-.05-.25-.1-.51-.15-.76-.61-3.22-1.29-6.42-2.04-9.59l30.92-12.38-9.74-29.97-32.22,8.14c-1.37-3.32-2.83-6.61-4.37-9.89-.11-.23-.22-.47-.33-.7-.57-1.2-1.15-2.4-1.75-3.59-.35-.7-.7-1.41-1.06-2.11-.36-.7-.72-1.4-1.09-2.1-.62-1.18-1.24-2.35-1.87-3.52-.12-.23-.25-.45-.37-.68-1.58-2.87-3.21-5.7-4.9-8.49l25.58-21.33-18.52-25.49-28.13,17.69c-2.33-2.73-4.74-5.42-7.21-8.05-.18-.19-.35-.38-.53-.56-.91-.97-1.84-1.92-2.77-2.87-.55-.56-1.1-1.12-1.65-1.68-.56-.56-1.12-1.11-1.68-1.66-.95-.93-1.91-1.86-2.87-2.77-.19-.18-.37-.35-.56-.53-2.39-2.25-4.81-4.44-7.28-6.56l17.74-28.19-25.49-18.52-21.28,25.52c-3.06-1.88-6.18-3.69-9.35-5.43-.23-.12-.45-.25-.68-.37-1.17-.63-2.34-1.26-3.52-1.87-.7-.37-1.4-.73-2.1-1.09-.7-.36-1.4-.71-2.11-1.06-1.19-.59-2.39-1.18-3.59-1.75-.23-.11-.47-.22-.7-.33-2.97-1.4-5.95-2.73-8.95-3.99l8.16-32.29-29.97-9.74-12.35,30.85c-3.49-.84-7.01-1.6-10.57-2.27-.25-.05-.51-.1-.76-.15-1.3-.24-2.61-.47-3.93-.69-.78-.13-1.56-.26-2.33-.39-.77-.12-1.55-.24-2.33-.35-1.32-.2-2.64-.38-3.96-.55-.25-.03-.5-.06-.76-.09-3.25-.41-6.51-.76-9.75-1.03l-2.22-33.23h-31.51l-2.22,33.16c-3.58,.28-7.17,.65-10.76,1.1-.25,.03-.51,.06-.76,.1-1.32,.17-2.64,.36-3.96,.55-.78,.11-1.55,.23-2.33,.35-.78,.12-1.56,.25-2.33,.39-1.31,.22-2.62,.45-3.93,.69-.25,.05-.51,.1-.76,.15-3.22,.61-6.42,1.29-9.59,2.04l-12.38-30.92-29.97,9.74,8.14,32.22c-3.32,1.37-6.61,2.83-9.88,4.37-.23,.11-.47,.22-.7,.33-1.2,.57-2.39,1.15-3.59,1.75-.7,.35-1.41,.7-2.11,1.06-.7,.36-1.4,.72-2.1,1.09-1.18,.62-2.35,1.24-3.52,1.87-.23,.12-.45,.25-.68,.37-2.87,1.58-5.71,3.21-8.49,4.9l-21.33-25.58-25.49,18.52,17.69,28.13c-2.73,2.33-5.42,4.74-8.05,7.21-.19,.18-.38,.35-.56,.53-.96,.91-1.92,1.84-2.87,2.77-.56,.55-1.13,1.1-1.68,1.66-.55,.56-1.1,1.12-1.65,1.68-.93,.95-1.86,1.91-2.77,2.87-.18,.19-.35,.37-.53,.56-2.25,2.39-4.44,4.81-6.56,7.28l-28.19-17.74-18.52,25.49,25.52,21.28c-1.88,3.06-3.69,6.18-5.43,9.35-.12,.22-.25,.45-.37,.67-.64,1.17-1.26,2.34-1.88,3.53-.36,.7-.73,1.39-1.08,2.09-.36,.7-.71,1.41-1.06,2.12-.59,1.19-1.17,2.38-1.74,3.58-.11,.24-.22,.47-.33,.71-1.4,2.96-2.73,5.95-3.99,8.95l-32.29-8.16-9.74,29.97,30.85,12.35c-.84,3.49-1.6,7.01-2.27,10.57-.05,.25-.1,.51-.15,.76-.24,1.3-.47,2.61-.69,3.93-.13,.78-.26,1.56-.39,2.33-.12,.78-.24,1.55-.35,2.33-.2,1.32-.38,2.64-.55,3.95-.03,.26-.06,.51-.1,.77-.41,3.25-.76,6.5-1.03,9.75L0,241.75v31.51l33.16,2.22c.28,3.58,.65,7.17,1.1,10.75,.03,.26,.06,.51,.1,.77,.17,1.32,.36,2.64,.55,3.95,.11,.78,.23,1.56,.35,2.33,.12,.78,.25,1.56,.39,2.33,.22,1.31,.45,2.62,.69,3.93,.05,.25,.1,.51,.15,.76,.61,3.22,1.29,6.42,2.04,9.59l-30.92,12.38,9.74,29.97,32.22-8.14c1.37,3.32,2.83,6.61,4.37,9.88,.11,.24,.22,.47,.33,.71,.57,1.2,1.15,2.39,1.74,3.58,.35,.71,.7,1.41,1.06,2.12,.36,.7,.72,1.4,1.08,2.09,.62,1.18,1.24,2.36,1.88,3.53,.12,.22,.25,.45,.37,.67,1.58,2.87,3.21,5.71,4.9,8.49l-25.58,21.33,18.52,25.49,28.13-17.69c2.33,2.73,4.74,5.42,7.21,8.05,.18,.19,.35,.38,.53,.56,.91,.97,1.84,1.92,2.77,2.87,.55,.56,1.1,1.12,1.65,1.68,.56,.56,1.12,1.11,1.68,1.66,.95,.93,1.91,1.86,2.87,2.77,.19,.18,.37,.35,.56,.53,2.39,2.25,4.81,4.44,7.28,6.56l-17.74,28.19,25.49,18.52,21.28-25.52c3.06,1.88,6.18,3.69,9.35,5.43,.23,.12,.45,.25,.68,.37,1.17,.63,2.34,1.26,3.52,1.87,.7,.37,1.4,.73,2.1,1.09,.7,.36,1.4,.71,2.11,1.06,1.19,.59,2.39,1.18,3.59,1.75,.23,.11,.47,.22,.7,.33,2.96,1.4,5.95,2.73,8.95,3.99l-8.16,32.29,29.97,9.74,12.35-30.85c3.49,.84,7.01,1.6,10.57,2.27,.25,.05,.51,.1,.76,.15,1.3,.24,2.61,.47,3.93,.69,.78,.13,1.56,.26,2.33,.39,.77,.12,1.55,.24,2.33,.35,1.32,.2,2.64,.38,3.96,.55,.25,.03,.51,.06,.76,.1,3.25,.41,6.51,.76,9.75,1.03l2.22,33.23h31.51l2.22-33.16c3.58-.28,7.17-.65,10.76-1.1,.25-.03,.5-.06,.76-.09,1.32-.17,2.64-.36,3.96-.55,.78-.11,1.55-.23,2.33-.35,.78-.12,1.56-.25,2.33-.39,1.31-.22,2.62-.45,3.93-.69,.25-.05,.51-.1,.76-.15,3.22-.61,6.42-1.29,9.59-2.04l12.38,30.92,29.97-9.74-8.14-32.22c3.32-1.37,6.61-2.83,9.89-4.37,.23-.11,.47-.22,.7-.33,1.2-.57,2.4-1.15,3.59-1.75,.7-.35,1.41-.7,2.11-1.06,.7-.36,1.4-.72,2.1-1.09,1.18-.62,2.35-1.24,3.52-1.87,.23-.12,.45-.25,.68-.37,2.87-1.58,5.7-3.21,8.49-4.9l21.33,25.58,25.49-18.52-17.69-28.13c2.73-2.33,5.42-4.74,8.05-7.21,.19-.18,.38-.35,.56-.53,.96-.91,1.92-1.84,2.87-2.77,.56-.55,1.13-1.1,1.68-1.66,.55-.56,1.1-1.12,1.65-1.68,.93-.95,1.86-1.91,2.77-2.87,.18-.19,.35-.37,.53-.56,2.25-2.39,4.44-4.81,6.56-7.28l28.19,17.74,18.52-25.49-25.52-21.28c1.88-3.06,3.69-6.18,5.43-9.35,.12-.23,.25-.45,.37-.68,.63-1.17,1.26-2.34,1.87-3.52,.37-.7,.73-1.4,1.09-2.1,.36-.7,.71-1.4,1.06-2.11,.59-1.19,1.18-2.39,1.75-3.59,.11-.23,.22-.47,.33-.7,1.4-2.97,2.73-5.95,3.99-8.95l32.29,8.16,9.74-29.97-30.85-12.35c.84-3.49,1.6-7.01,2.27-10.57,.05-.25,.1-.51,.15-.76Zm-21.93-52.04h-69.03c-.16-1.97-.36-3.94-.61-5.91-.02-.15-.04-.29-.06-.44-.1-.77-.21-1.54-.32-2.3-.07-.45-.13-.9-.2-1.35-.07-.45-.15-.9-.22-1.36-.13-.76-.26-1.52-.4-2.28-.03-.15-.06-.3-.08-.44-.36-1.87-.75-3.73-1.18-5.57l17.98-7.2-5.66-17.42-18.73,4.73c-.8-1.93-1.64-3.85-2.54-5.75-.06-.14-.13-.27-.19-.41-.33-.7-.67-1.39-1.02-2.09-.2-.41-.41-.82-.61-1.23-.21-.41-.42-.81-.63-1.22-.36-.69-.72-1.37-1.09-2.05-.07-.13-.15-.26-.22-.4-.92-1.67-1.86-3.32-2.85-4.93l14.87-12.4-10.77-14.82-16.35,10.29c-1.36-1.59-2.75-3.15-4.19-4.68-.1-.11-.2-.22-.31-.33-.53-.56-1.07-1.12-1.61-1.67-.32-.33-.64-.65-.96-.98-.32-.32-.65-.64-.98-.97-.55-.54-1.11-1.08-1.67-1.61-.11-.1-.22-.2-.33-.31-1.39-1.31-2.8-2.58-4.23-3.81l10.31-16.39-14.82-10.77-12.37,14.84c-1.78-1.09-3.59-2.14-5.43-3.16-.13-.07-.26-.15-.4-.22-.68-.37-1.36-.73-2.05-1.09-.41-.21-.81-.42-1.22-.63-.41-.21-.82-.41-1.23-.61-.69-.35-1.39-.68-2.09-1.02-.14-.06-.27-.13-.41-.19-1.72-.81-3.46-1.59-5.21-2.32l4.74-18.77-17.42-5.66-7.18,17.94c-2.03-.49-4.08-.93-6.14-1.32-.15-.03-.3-.06-.44-.08-.76-.14-1.52-.28-2.28-.4-.45-.08-.9-.15-1.36-.22-.45-.07-.9-.14-1.35-.2-.77-.11-1.54-.22-2.3-.32-.15-.02-.29-.04-.44-.06-1.89-.24-3.78-.44-5.67-.6l-.74-11.1V58.25c102.33,5.04,184.44,86.99,189.73,189.25Zm-125.47,0c-4.65-33.18-31-59.38-64.25-63.82v-41.53c56.07,4.78,100.79,49.34,105.8,105.35h-41.55Zm-74.25,25.5c-8.28,0-15-6.72-15-15s6.72-15,15-15,15,6.72,15,15-6.72,15-15,15Zm-10-89.32c-33.42,4.46-59.86,30.9-64.32,64.32h-41.53c4.79-56.24,49.61-101.06,105.85-105.85v41.53Zm-64.32,84.32c4.42,33.17,30.5,59.47,63.57,64.22v41.56c-55.89-5.12-100.33-49.79-105.1-105.78h41.53Zm83.57,64.41c33.94-4.18,60.84-31.01,65.13-64.91h41.51c-4.59,56.72-49.88,101.95-106.64,106.41v-41.5ZM248,58.25V124.91l-.16,2.37c-2.08,.16-4.17,.38-6.25,.64-.15,.02-.29,.04-.44,.06-.77,.1-1.53,.21-2.3,.32-.45,.07-.9,.13-1.35,.2-.45,.07-.9,.15-1.36,.22-.76,.13-1.52,.26-2.28,.4-.15,.03-.29,.06-.44,.08-1.87,.36-3.73,.75-5.57,1.18l-7.2-17.98-17.42,5.66,4.73,18.73c-1.93,.8-3.85,1.64-5.75,2.54-.14,.06-.27,.13-.41,.19-.7,.33-1.39,.67-2.09,1.02-.41,.2-.82,.41-1.23,.61-.41,.21-.81,.42-1.22,.63-.69,.36-1.37,.72-2.05,1.09-.13,.07-.26,.14-.39,.22-1.67,.92-3.32,1.86-4.94,2.85l-12.4-14.87-14.82,10.77,10.29,16.35c-1.59,1.36-3.15,2.75-4.68,4.19-.11,.1-.22,.2-.33,.31-.56,.53-1.12,1.07-1.67,1.61-.33,.32-.66,.64-.98,.97-.32,.32-.64,.65-.96,.98-.54,.55-1.08,1.11-1.61,1.67-.1,.11-.2,.22-.31,.33-1.31,1.39-2.58,2.8-3.81,4.23l-16.39-10.31-10.77,14.82,14.84,12.37c-1.09,1.78-2.14,3.59-3.16,5.44-.07,.13-.14,.26-.22,.39-.37,.68-.73,1.36-1.09,2.05-.21,.4-.42,.81-.63,1.22-.21,.41-.41,.82-.62,1.23-.34,.69-.68,1.39-1.01,2.08-.06,.14-.13,.27-.19,.41-.81,1.72-1.59,3.46-2.32,5.2l-18.77-4.74-5.66,17.42,17.94,7.18c-.49,2.03-.93,4.08-1.32,6.14-.03,.15-.06,.3-.08,.44-.14,.76-.28,1.52-.4,2.28-.08,.45-.15,.9-.22,1.36-.07,.45-.14,.9-.2,1.36-.11,.77-.22,1.53-.32,2.3-.02,.15-.04,.3-.06,.45-.24,1.89-.44,3.78-.6,5.67l-11.1,.74H58.25c5.05-102.5,87.25-184.7,189.75-189.75ZM58.25,268H124.91l2.36,.16c.16,2.08,.38,4.17,.64,6.25,.02,.15,.04,.3,.06,.45,.1,.77,.21,1.53,.32,2.3,.07,.45,.13,.9,.2,1.36,.07,.45,.15,.9,.22,1.36,.13,.76,.26,1.52,.4,2.28,.03,.15,.06,.3,.08,.44,.36,1.87,.75,3.73,1.18,5.57l-17.98,7.2,5.66,17.42,18.73-4.73c.8,1.93,1.64,3.84,2.54,5.74,.06,.14,.13,.27,.19,.41,.33,.7,.67,1.39,1.01,2.08,.2,.41,.41,.82,.62,1.23,.21,.41,.42,.81,.63,1.22,.36,.69,.72,1.37,1.09,2.05,.07,.13,.14,.26,.22,.39,.92,1.67,1.87,3.32,2.85,4.94l-14.87,12.4,10.77,14.82,16.35-10.29c1.36,1.59,2.75,3.15,4.19,4.68,.1,.11,.2,.22,.31,.33,.53,.56,1.07,1.12,1.61,1.67,.32,.33,.64,.65,.96,.98,.32,.32,.65,.64,.98,.97,.55,.54,1.11,1.08,1.67,1.61,.11,.1,.22,.2,.33,.31,1.39,1.31,2.8,2.58,4.23,3.81l-10.31,16.39,14.82,10.77,12.37-14.84c1.78,1.09,3.59,2.14,5.43,3.16,.13,.07,.26,.15,.39,.22,.68,.37,1.36,.73,2.05,1.09,.41,.21,.81,.42,1.22,.63,.41,.21,.82,.41,1.23,.61,.69,.34,1.39,.68,2.09,1.02,.14,.06,.27,.13,.41,.19,1.72,.81,3.46,1.59,5.2,2.32l-4.74,18.77,17.42,5.66,7.18-17.94c2.03,.49,4.08,.93,6.14,1.32,.15,.03,.29,.06,.44,.08,.76,.14,1.52,.28,2.28,.4,.45,.08,.9,.15,1.36,.22,.45,.07,.9,.14,1.35,.2,.77,.11,1.53,.22,2.3,.32,.15,.02,.29,.04,.44,.06,1.89,.24,3.78,.44,5.66,.6v69.03c-102.15-5.41-183.97-87.46-189-189.71Zm209,189.78v-55.48l.91-13.58c2.08-.16,4.17-.38,6.25-.64,.15-.02,.29-.04,.44-.06,.77-.1,1.54-.21,2.3-.32,.45-.07,.9-.13,1.35-.2,.45-.07,.9-.15,1.36-.22,.76-.13,1.52-.26,2.28-.4,.15-.03,.3-.06,.44-.09,1.87-.36,3.73-.75,5.57-1.18l7.2,17.98,17.42-5.66-4.73-18.73c1.93-.8,3.85-1.64,5.75-2.54,.14-.06,.27-.13,.41-.19,.7-.33,1.39-.67,2.09-1.02,.41-.2,.82-.41,1.23-.61,.41-.21,.81-.42,1.22-.63,.69-.36,1.37-.72,2.05-1.09,.13-.07,.26-.15,.4-.22,1.67-.92,3.32-1.86,4.93-2.85l12.4,14.87,14.82-10.77-10.29-16.35c1.59-1.36,3.15-2.75,4.68-4.19,.11-.1,.22-.2,.33-.31,.56-.53,1.12-1.07,1.67-1.61,.33-.32,.66-.64,.98-.97,.32-.32,.64-.65,.96-.98,.54-.55,1.08-1.11,1.61-1.67,.1-.11,.2-.22,.31-.33,1.31-1.39,2.58-2.8,3.81-4.23l16.39,10.31,10.77-14.82-14.84-12.37c1.09-1.78,2.14-3.59,3.16-5.43,.07-.13,.15-.26,.22-.4,.37-.68,.73-1.36,1.09-2.05,.21-.41,.42-.81,.63-1.22,.21-.41,.41-.82,.61-1.23,.35-.69,.68-1.39,1.02-2.09,.06-.14,.13-.27,.19-.41,.81-1.72,1.59-3.46,2.32-5.21l18.77,4.74,5.66-17.42-17.94-7.18c.49-2.03,.93-4.08,1.32-6.14,.03-.15,.06-.3,.08-.44,.14-.76,.28-1.52,.4-2.28,.08-.45,.15-.9,.22-1.36,.07-.45,.14-.9,.2-1.35,.11-.77,.22-1.54,.32-2.3,.02-.15,.04-.29,.06-.44,.24-1.89,.44-3.78,.6-5.67l18.58-1.24h50.49v-19.52c.16,3.32,.25,6.66,.25,10.02,0,107.36-84.59,194.95-190.75,199.78Z"/></g></g></svg>