<svg id="歯車" xmlns="http://www.w3.org/2000/svg" xmlns:xlink="http://www.w3.org/1999/xlink" width="450" height="450" viewBox="0 0 450 450">
  <defs>
    <clipPath id="clip-path">
      <path id="パス_2" data-name="パス 2" d="M450,225c0,124.263-100.737,225-225,225S0,349.263,0,225,100.737,0,225,0,450,100.737,450,225ZM225,90A135,135,0,1,0,360,225,135,135,0,0,0,225,90Z" fill="none"/>
    </clipPath>
    <clipPath id="clip-path-2">
      <circle id="楕円形_1" data-name="楕円形 1" cx="225" cy="225" r="225" fill="none"/>
    </clipPath>
  </defs>
  <g id="c">
    <g id="グループ_3" data-name="グループ 3">
      <g id="グループ_2" data-name="グループ 2" clip-path="url(#clip-path)">
        <g id="グループ_1" data-name="グループ 1" clip-path="url(#clip-path-2)">
          <path id="パス_1" data-name="パス 1" d="M490,220.446c0,13.329-90.486,18.621-92.709,31.32-2.286,13.05,80.91,48.879,76.482,61.047s-91.314-13.653-97.83-2.394c-6.579,11.367,59.283,73.593,50.886,83.592S345.724,349.92,335.7,358.344c-10,8.4,30.735,89.352,19.368,95.931-11.268,6.516-61.074-69.147-73.467-64.638-12.177,4.428-1.683,94.455-14.733,96.741s-33.516-85.941-46.845-85.941-34.155,88.164-46.845,85.941c-13.05-2.286-2.565-92.3-14.742-96.741s-62.208,71.154-73.467,64.638c-11.367-6.579,29.367-87.534,19.368-95.931-10.026-8.424-82.71,45.693-91.134,35.667-8.4-10,57.465-72.225,50.886-83.592s-93.321,14.778-97.83,2.394c-4.428-12.177,78.768-48,76.482-61.047s-92.709-17.991-92.709-31.32,90.486-18.621,92.709-31.32c2.286-13.05-80.91-48.879-76.482-61.047s91.314,13.653,97.83,2.394-59.31-73.6-50.9-83.6,81.108,44.091,91.134,35.667c10-8.4-30.735-89.352-19.368-95.931s61.074,69.147,73.467,64.638,1.683-94.455,14.733-96.741,33.516,85.941,46.845,85.941,34.155-88.164,46.845-85.941c13.05,2.286,2.565,92.3,14.742,96.741s62.208-71.163,73.476-64.638S325.69,74.142,335.689,82.539c10.026,8.424,82.71-45.693,91.134-35.667s-57.465,72.225-50.886,83.592c6.516,11.268,93.321-14.778,97.83-2.394,4.428,12.177-78.768,48-76.482,61.047s92.709,17.991,92.709,31.32Z" transform="translate(4.997 4.554)" fill="#eac75a"/>
        </g>
        <circle id="楕円形_2" data-name="楕円形 2" cx="202.5" cy="202.5" r="202.5" transform="translate(22.5 22.5)" fill="#eac75a"/>
      </g>
    </g>
  </g>
</svg>
