<?xml version="1.0" encoding="UTF-8"?><svg xmlns="http://www.w3.org/2000/svg" viewBox="0 0 499.98 499.95"><defs><style>.d{fill:#eac75a;}</style></defs><g id="a"/><g id="b"><g id="c"><path class="d" d="M226.55,475.12c-.09-13.8,11.02-25.07,24.83-25.16h0c13.8-.1,25.07,11.02,25.17,24.82h0c.09,13.81-11.02,25.08-24.83,25.17h-.17c-13.73,0-24.91-11.08-25-24.83Zm-70.26,6.68h0c-12.8-5.17-18.98-19.74-13.8-32.55h0c5.17-12.79,19.75-18.97,32.55-13.8h0c12.8,5.18,18.98,19.75,13.8,32.55h0c-3.94,9.73-13.3,15.63-23.18,15.63h0c-3.12,0-6.3-.58-9.37-1.83Zm157.85-14.67c-5.36-12.72,.62-27.38,13.35-32.73h0c12.72-5.36,27.38,.61,32.74,13.34h0c5.35,12.73-.62,27.38-13.35,32.74h0c-3.17,1.33-6.45,1.96-9.69,1.96h0c-9.76,0-19.03-5.75-23.05-15.31Zm-239.09-38.57c-9.86-9.66-10.03-25.48-.36-35.35h0c9.66-9.86,25.48-10.03,35.35-.36h0c9.86,9.66,10.02,25.48,.36,35.35h0c-4.89,5-11.37,7.51-17.86,7.51h0c-6.31,0-12.62-2.38-17.49-7.15Zm316.96-2.31c-9.8-9.73-9.85-25.56-.12-35.36h0c9.73-9.8,25.56-9.85,35.35-.12h0c9.8,9.73,9.85,25.56,.12,35.35h0c-4.88,4.93-11.31,7.39-17.73,7.39h0c-6.37,0-12.74-2.42-17.62-7.26ZM20.14,348.45c-5.45-12.69,.43-27.39,13.12-32.83h0c12.68-5.45,27.38,.42,32.83,13.11h0c5.44,12.69-.43,27.39-13.12,32.83h0c-3.21,1.38-6.56,2.04-9.85,2.04h0c-9.69,0-18.92-5.68-22.98-15.15Zm428.38,10.37c-12.76-5.27-18.84-19.88-13.57-32.64h0c5.26-12.77,19.88-18.84,32.64-13.58h0c12.77,5.27,18.84,19.88,13.58,32.65h0c-3.98,9.64-13.3,15.47-23.12,15.47h0c-3.18,0-6.41-.61-9.53-1.9ZM0,253.43c-.19-13.8,10.85-25.15,24.66-25.34h0c13.8-.18,25.15,10.85,25.34,24.66h0c.19,13.81-10.85,25.15-24.66,25.34h-.34C11.35,278.09,.19,267.12,0,253.43Zm449.98-3.47c0-.94,.05-1.87,.15-2.78h0c-.12-.91-.2-1.84-.22-2.78h0c-.38-13.8,10.5-25.29,24.31-25.67h0c13.8-.38,25.29,10.51,25.66,24.31h0c.04,1.17-.01,2.33-.14,3.46h0c.16,1.13,.24,2.29,.24,3.46h0c0,13.81-11.19,25-25,25h0c-13.81,0-25-11.19-25-25ZM31.52,190.33c-12.84-5.09-19.12-19.62-14.03-32.45h0c5.09-12.84,19.62-19.12,32.45-14.03h0c12.84,5.09,19.12,19.62,14.03,32.45h0c-3.89,9.82-13.29,15.8-23.24,15.8h0c-3.07,0-6.19-.57-9.21-1.77Zm401.25-21.68c-5.62-12.61,.04-27.4,12.66-33.01h0c12.61-5.62,27.39,.04,33.01,12.66h0c5.62,12.61-.05,27.39-12.66,33.01h0c-3.31,1.47-6.76,2.17-10.17,2.17h0c-9.56,0-18.7-5.53-22.84-14.83ZM70.78,111.62c-9.93-9.59-10.21-25.42-.61-35.35h0c9.59-9.93,25.42-10.2,35.35-.61h0c9.93,9.6,10.2,25.42,.61,35.35h0c-4.91,5.08-11.44,7.63-17.98,7.63h0c-6.26,0-12.52-2.33-17.37-7.02Zm317.15-6.47c-9.99-9.52-10.37-25.35-.85-35.34h0c9.53-10,25.35-10.38,35.35-.85h0c9.99,9.52,10.37,25.35,.85,35.34h0c-4.92,5.16-11.5,7.75-18.11,7.75h0c-6.19,0-12.4-2.29-17.24-6.9ZM137.01,53.73c-5.54-12.65,.23-27.39,12.88-32.92h0c12.65-5.54,27.39,.23,32.93,12.89h0c5.53,12.64-.24,27.38-12.89,32.92h0c-3.26,1.42-6.66,2.1-10,2.1h0c-9.64,0-18.82-5.6-22.92-14.99Zm185.34,9.72c-12.87-5-19.25-19.49-14.25-32.35h0c5-12.88,19.48-19.26,32.36-14.26h0c12.87,5,19.25,19.48,14.25,32.36h0c-3.84,9.89-13.3,15.95-23.31,15.95h0c-3.01,0-6.07-.55-9.05-1.7ZM220.3,25.52C220.02,11.71,230.98,.29,244.78,0h0c13.81-.28,25.23,10.68,25.51,24.49h0c.28,13.8-10.68,25.22-24.49,25.5h0c-.17,0-.34,0-.52,0h0c-13.57,0-24.7-10.86-24.98-24.49Z"/><path class="d" d="M249.98,49.96c27.01,0,53.2,5.28,77.84,15.71,23.81,10.07,45.2,24.5,63.58,42.87,18.38,18.38,32.8,39.77,42.87,63.58,10.42,24.64,15.71,50.83,15.71,77.84s-5.28,53.2-15.71,77.84c-10.07,23.81-24.5,45.2-42.87,63.58-18.38,18.38-39.77,32.8-63.58,42.87-24.64,10.42-50.83,15.71-77.84,15.71s-53.2-5.28-77.84-15.71c-23.81-10.07-45.2-24.5-63.58-42.87-18.38-18.38-32.8-39.77-42.87-63.58-10.42-24.64-15.71-50.83-15.71-77.84s5.28-53.2,15.71-77.84c10.07-23.81,24.5-45.2,42.87-63.58,18.38-18.38,39.77-32.8,63.58-42.87,24.64-10.42,50.83-15.71,77.84-15.71m0-25C125.72,24.96,24.98,125.69,24.98,249.96s100.74,225,225,225,225-100.74,225-225S374.25,24.96,249.98,24.96h0Z"/><path class="d" d="M249.98,64.96h-.07c-6.9,0-12.48,5.6-12.48,12.5,0,6.9,5.6,12.5,12.5,12.5h.05c6.9,0,12.5-5.6,12.5-12.5s-5.59-12.5-12.5-12.5c0,0,0,0,0,0h0Zm-70.65,15.07c-1.71,0-3.45,.35-5.12,1.1h-.03l-.04,.03c-6.28,2.84-9.08,10.23-6.25,16.52,2.08,4.63,6.64,7.38,11.41,7.38,1.71,0,3.46-.35,5.12-1.1l.04-.02c6.3-2.83,9.11-10.23,6.28-16.53-2.08-4.63-6.64-7.38-11.41-7.38h0Zm-58.23,42.77c-3.44,0-6.87,1.41-9.34,4.19l-.03,.03h0c-4.59,5.17-4.13,13.07,1.03,17.66,2.38,2.12,5.35,3.16,8.31,3.16,3.44,0,6.87-1.42,9.34-4.19l.03-.04c4.59-5.16,4.13-13.06-1.03-17.65-2.38-2.12-5.35-3.16-8.31-3.16h0Zm-35.7,62.8c-5.31,0-10.23,3.41-11.92,8.74l-.03,.1c-2.04,6.57,1.62,13.56,8.19,15.63,1.25,.39,2.51,.58,3.75,.58,5.31,0,10.24-3.42,11.92-8.75v-.05c2.09-6.59-1.57-13.6-8.16-15.68-1.25-.39-2.51-.58-3.76-.58h0Zm-6.75,71.96c-.48,0-.97,.03-1.46,.08-6.85,.79-11.76,6.98-10.98,13.83v.1c.76,6.36,6.16,11.04,12.41,11.04,.48,0,.97-.03,1.46-.08,6.86-.8,11.77-7,10.97-13.86v-.05c-.74-6.37-6.15-11.06-12.41-11.06h0Zm23.2,68.37c-2.19,0-4.4,.57-6.41,1.78-5.92,3.55-7.85,11.22-4.3,17.14v.02l.02,.02h0c2.34,3.92,6.48,6.08,10.73,6.08,2.19,0,4.4-.57,6.41-1.78,5.92-3.55,7.85-11.23,4.3-17.15l-.02-.04c-2.34-3.91-6.49-6.08-10.74-6.08h0Zm49.27,52.9c-3.94,0-7.82,1.86-10.25,5.33-3.96,5.65-2.59,13.43,3.05,17.4l.09,.06c2.18,1.52,4.67,2.24,7.13,2.24,3.94,0,7.82-1.86,10.25-5.33,3.96-5.65,2.59-13.45-3.07-17.41l-.04-.03c-2.18-1.53-4.68-2.26-7.16-2.26h0Zm66.5,28.1c-5.89,0-11.13,4.18-12.27,10.17-1.28,6.78,3.16,13.31,9.93,14.6h.07l.02,.02c.78,.15,1.56,.22,2.33,.22,5.89,0,11.13-4.18,12.27-10.18,1.28-6.78-3.17-13.32-9.96-14.61h-.05c-.79-.16-1.57-.23-2.34-.23h0Zm72.33-1.62c-.95,0-1.92,.11-2.89,.34h-.05c-6.72,1.6-10.87,8.34-9.28,15.06,1.36,5.75,6.49,9.62,12.15,9.62,.95,0,1.92-.11,2.89-.34h.05c6.72-1.6,10.87-8.34,9.28-15.06-1.36-5.75-6.49-9.62-12.15-9.62h0Zm65.17-31.09c-2.66,0-5.35,.85-7.62,2.6l-.04,.03c-5.47,4.21-6.49,12.06-2.28,17.53,2.46,3.2,6.17,4.88,9.91,4.88,2.65,0,5.33-.84,7.6-2.58l.07-.06c5.46-4.21,6.48-12.06,2.27-17.52-2.46-3.2-6.17-4.87-9.91-4.87h0Zm46.84-55.06c-4.45,0-8.76,2.38-11.02,6.57l-.02,.04c-3.28,6.08-1.01,13.66,5.07,16.94,1.89,1.02,3.92,1.5,5.92,1.5,4.45,0,8.75-2.38,11.01-6.57v-.03l.04-.04c3.26-6.07,.99-13.64-5.08-16.91-1.89-1.02-3.92-1.5-5.92-1.5h0Zm20.08-69.36c-6.5,0-11.99,5.03-12.46,11.62v.05c-.49,6.89,4.7,12.86,11.58,13.35,.3,.02,.6,.03,.9,.03,6.49,0,11.97-5.02,12.45-11.58v-.05h0v-.07c.47-6.87-4.71-12.83-11.58-13.31-.3-.02-.6-.03-.89-.03h0Zm-9.99-71.57c-1.42,0-2.87,.25-4.29,.76-6.48,2.37-9.82,9.55-7.45,16.03l.02,.04c1.85,5.07,6.64,8.21,11.74,8.21,1.42,0,2.87-.25,4.29-.76,6.47-2.36,9.81-9.52,7.46-16l-.02-.05v-.02l-.02-.03c-1.86-5.05-6.64-8.19-11.73-8.19h0Zm-38.5-61.13c-3.14,0-6.29,1.18-8.72,3.55-4.95,4.82-5.05,12.73-.23,17.68l.03,.03c2.45,2.52,5.7,3.78,8.96,3.78s6.29-1.18,8.72-3.54c4.95-4.82,5.05-12.73,.24-17.67l-.04-.04c-2.45-2.52-5.7-3.78-8.95-3.78h0Zm-60.1-40.1c-4.98,0-9.68,2.99-11.62,7.9-2.54,6.42,.6,13.68,7.02,16.23l.04,.02c1.51,.6,3.07,.88,4.6,.88,4.98,0,9.68-2.99,11.63-7.9,2.54-6.41-.59-13.67-7-16.22l-.05-.02h-.03c-1.51-.61-3.07-.89-4.6-.89h0Z"/><path class="d" d="M249.98,134.96c30.72,0,59.6,11.96,81.32,33.68,21.72,21.72,33.68,50.6,33.68,81.32s-11.96,59.6-33.68,81.32c-21.72,21.72-50.6,33.68-81.32,33.68s-59.6-11.96-81.32-33.68c-21.72-21.72-33.68-50.6-33.68-81.32s11.96-59.6,33.68-81.32c21.72-21.72,50.6-33.68,81.32-33.68m0-25c-77.32,0-140,62.68-140,140s62.68,140,140,140,140-62.68,140-140-62.68-140-140-140h0Z"/><path class="d" d="M249.98,202.46c26.19,0,47.5,21.31,47.5,47.5s-21.31,47.5-47.5,47.5-47.5-21.31-47.5-47.5,21.31-47.5,47.5-47.5m0-25c-40.04,0-72.5,32.46-72.5,72.5s32.46,72.5,72.5,72.5,72.5-32.46,72.5-72.5-32.46-72.5-72.5-72.5h0Z"/></g></g></svg>