<?xml version="1.0" encoding="UTF-8"?><svg xmlns="http://www.w3.org/2000/svg" xmlns:xlink="http://www.w3.org/1999/xlink" viewBox="0 0 460 460"><defs><style>.f{fill:#eac75a;}.g{clip-path:url(#e);}.h{clip-path:url(#d);}.i{fill:none;}</style><clipPath id="d"><path class="i" d="M460,230c0,127.03-102.97,230-230,230S0,357.03,0,230,102.97,0,230,0s230,102.97,230,230ZM230,80c-82.84,0-150,67.16-150,150s67.16,150,150,150,150-67.16,150-150S312.84,80,230,80Z"/></clipPath><clipPath id="e"><circle class="i" cx="230" cy="230" r="230"/></clipPath></defs><g id="a"/><g id="b"><g id="c"><g class="h"><g class="g"><polygon class="f" points="469 230 433.86 284.64 437.01 349.53 379.2 379.2 349.53 437.01 284.64 433.86 230 469 175.36 433.86 110.47 437.01 80.8 379.2 22.99 349.53 26.14 284.64 -9 230 26.14 175.36 22.99 110.47 80.8 80.8 110.47 22.99 175.36 26.14 230 -9 284.64 26.14 349.53 22.99 379.2 80.8 437.01 110.47 433.86 175.36 469 230"/></g></g><circle class="f" cx="230" cy="230" r="100"/></g></g></svg>