<?xml version="1.0" encoding="UTF-8"?><svg xmlns="http://www.w3.org/2000/svg" viewBox="0 0 516 516"><defs><style>.d{fill:#eac75a;}</style></defs><g id="a"/><g id="b"><g id="c"><path class="d" d="M479.66,299.54c.24-1.3,.47-2.61,.69-3.93,.13-.78,.26-1.56,.39-2.33,.12-.78,.24-1.55,.35-2.33,.2-1.32,.38-2.64,.55-3.95,.03-.26,.06-.51,.1-.77,.41-3.25,.76-6.5,1.03-9.75l33.23-2.22v-31.51l-33.16-2.22c-.28-3.58-.65-7.16-1.1-10.75-.03-.26-.06-.51-.1-.77-.17-1.32-.36-2.63-.55-3.95-.11-.78-.23-1.56-.35-2.34-.12-.77-.25-1.55-.38-2.32-.22-1.32-.45-2.63-.7-3.94-.05-.25-.1-.5-.14-.75-.61-3.22-1.29-6.42-2.04-9.59l30.92-12.38-9.74-29.97-32.22,8.14c-1.37-3.32-2.83-6.62-4.37-9.89-.11-.23-.22-.46-.32-.69-.57-1.2-1.16-2.4-1.75-3.6-.35-.7-.7-1.41-1.05-2.1-.36-.7-.72-1.4-1.09-2.1-.62-1.18-1.24-2.35-1.87-3.52-.12-.23-.25-.45-.37-.68-1.58-2.87-3.21-5.7-4.9-8.49l25.58-21.33-18.52-25.49-28.13,17.69c-2.33-2.73-4.73-5.42-7.21-8.05-.18-.19-.35-.38-.53-.56-.91-.96-1.84-1.92-2.77-2.87-.55-.56-1.1-1.12-1.65-1.68-.56-.56-1.12-1.11-1.68-1.66-.95-.93-1.91-1.86-2.87-2.77-.19-.18-.38-.35-.57-.53-2.39-2.24-4.81-4.43-7.28-6.56l17.73-28.19-25.49-18.52-21.28,25.52c-3.06-1.88-6.18-3.69-9.35-5.43-.23-.12-.45-.25-.68-.37-1.17-.64-2.34-1.26-3.53-1.88-.7-.36-1.39-.73-2.09-1.08-.7-.36-1.41-.71-2.11-1.06-1.19-.59-2.39-1.18-3.59-1.75-.23-.11-.47-.22-.7-.33-2.97-1.4-5.95-2.73-8.95-3.99l8.16-32.29-29.97-9.74-12.35,30.85c-3.49-.84-7.01-1.6-10.57-2.27-.25-.05-.51-.1-.76-.15-1.3-.24-2.61-.47-3.93-.69-.78-.13-1.56-.26-2.33-.39-.78-.12-1.55-.24-2.33-.35-1.32-.2-2.64-.38-3.95-.55-.26-.03-.51-.06-.77-.1-3.25-.41-6.5-.76-9.75-1.03L274.25,0h-31.51l-2.22,33.16c-3.58,.28-7.16,.65-10.75,1.1-.26,.03-.51,.06-.77,.1-1.32,.17-2.63,.36-3.95,.55-.78,.11-1.56,.23-2.34,.35-.77,.12-1.55,.25-2.32,.38-1.32,.22-2.63,.45-3.94,.7-.25,.05-.5,.1-.75,.14-3.22,.61-6.42,1.29-9.59,2.04l-12.38-30.92-29.97,9.74,8.14,32.22c-3.32,1.37-6.62,2.83-9.89,4.37-.23,.11-.46,.22-.69,.32-1.2,.57-2.4,1.16-3.59,1.75-.7,.35-1.41,.7-2.11,1.05-.7,.36-1.4,.72-2.1,1.09-1.18,.62-2.35,1.24-3.52,1.87-.23,.12-.45,.25-.68,.37-2.87,1.58-5.71,3.21-8.49,4.9l-21.33-25.58-25.49,18.52,17.69,28.13c-2.73,2.33-5.42,4.73-8.05,7.21-.19,.18-.38,.35-.57,.53-.96,.91-1.92,1.84-2.87,2.77-.56,.55-1.12,1.1-1.68,1.66-.56,.56-1.11,1.12-1.66,1.68-.93,.95-1.86,1.91-2.77,2.87-.18,.19-.35,.38-.53,.57-2.24,2.39-4.44,4.81-6.56,7.28l-28.19-17.74-18.52,25.49,25.52,21.28c-1.88,3.06-3.69,6.18-5.43,9.35-.12,.23-.25,.45-.37,.68-.64,1.17-1.26,2.34-1.88,3.52-.37,.7-.73,1.4-1.09,2.1-.36,.7-.71,1.4-1.05,2.11-.59,1.19-1.18,2.39-1.75,3.59-.11,.23-.22,.47-.33,.7-1.4,2.97-2.73,5.95-3.99,8.95l-32.29-8.16-9.74,29.97,30.85,12.35c-.84,3.49-1.6,7.02-2.28,10.57-.05,.25-.1,.5-.14,.75-.24,1.31-.47,2.62-.7,3.93-.13,.78-.26,1.55-.39,2.33-.12,.78-.24,1.56-.35,2.34-.2,1.32-.38,2.63-.55,3.94-.03,.26-.07,.52-.1,.78-.41,3.25-.76,6.5-1.03,9.74L0,241.75v31.51l33.16,2.22c.28,3.58,.65,7.16,1.1,10.75,.03,.26,.06,.51,.1,.77,.17,1.32,.36,2.63,.55,3.95,.11,.78,.23,1.56,.35,2.34,.12,.78,.25,1.55,.39,2.33,.22,1.31,.45,2.62,.7,3.93,.05,.25,.1,.51,.15,.76,.61,3.22,1.29,6.42,2.04,9.59l-30.92,12.38,9.74,29.97,32.22-8.14c1.37,3.32,2.83,6.61,4.37,9.89,.11,.23,.22,.47,.33,.7,.57,1.2,1.15,2.4,1.75,3.59,.35,.7,.7,1.41,1.06,2.11,.36,.7,.72,1.4,1.09,2.1,.62,1.18,1.24,2.35,1.87,3.52,.12,.23,.25,.45,.37,.68,1.58,2.87,3.21,5.7,4.9,8.49l-25.58,21.33,18.52,25.49,28.13-17.69c2.33,2.73,4.73,5.41,7.21,8.05,.18,.19,.36,.38,.54,.57,.91,.96,1.83,1.92,2.77,2.87,.55,.56,1.1,1.13,1.66,1.68,.56,.55,1.12,1.11,1.68,1.65,.95,.93,1.91,1.86,2.88,2.77,.19,.18,.37,.35,.56,.53,2.39,2.25,4.82,4.44,7.28,6.56l-17.73,28.19,25.49,18.52,21.28-25.52c3.06,1.88,6.18,3.69,9.35,5.43,.23,.12,.45,.25,.68,.37,1.17,.64,2.34,1.26,3.53,1.88,.7,.36,1.39,.73,2.09,1.08,.7,.36,1.41,.71,2.11,1.06,1.19,.59,2.39,1.18,3.59,1.75,.23,.11,.47,.22,.7,.33,2.97,1.4,5.95,2.73,8.95,3.99l-8.16,32.29,29.97,9.74,12.35-30.85c3.49,.84,7.01,1.6,10.57,2.27,.25,.05,.51,.1,.76,.15,1.3,.24,2.61,.47,3.93,.69,.78,.13,1.56,.26,2.33,.39,.78,.12,1.55,.24,2.33,.35,1.32,.2,2.63,.38,3.95,.55,.26,.03,.51,.06,.77,.1,3.25,.41,6.5,.76,9.75,1.03l2.22,33.23h31.51l2.22-33.16c3.58-.28,7.16-.65,10.75-1.1,.26-.03,.51-.06,.77-.1,1.32-.17,2.63-.36,3.95-.55,.78-.11,1.56-.23,2.34-.35,.77-.12,1.55-.25,2.32-.38,1.32-.22,2.63-.45,3.94-.7,.25-.05,.5-.1,.75-.14,3.22-.61,6.42-1.29,9.59-2.04l12.38,30.92,29.97-9.74-8.14-32.22c3.32-1.37,6.62-2.83,9.89-4.37,.23-.11,.46-.22,.69-.32,1.2-.57,2.4-1.16,3.6-1.75,.7-.35,1.41-.7,2.1-1.05,.7-.36,1.4-.72,2.1-1.09,1.18-.62,2.35-1.24,3.52-1.87,.23-.12,.45-.25,.68-.37,2.87-1.58,5.7-3.21,8.49-4.9l21.33,25.58,25.49-18.52-17.69-28.13c2.73-2.33,5.42-4.73,8.05-7.21,.19-.18,.38-.35,.56-.53,.96-.91,1.92-1.84,2.87-2.77,.56-.55,1.12-1.1,1.68-1.65,.56-.56,1.11-1.12,1.66-1.68,.93-.95,1.86-1.91,2.77-2.87,.18-.19,.35-.38,.53-.57,2.24-2.39,4.43-4.81,6.56-7.28l28.19,17.74,18.52-25.49-25.52-21.28c1.88-3.06,3.69-6.18,5.43-9.35,.12-.23,.25-.45,.37-.68,.64-1.17,1.26-2.34,1.88-3.52,.37-.7,.73-1.4,1.09-2.1,.36-.7,.71-1.4,1.05-2.11,.59-1.19,1.18-2.39,1.75-3.59,.11-.23,.22-.47,.33-.7,1.4-2.97,2.73-5.95,3.99-8.95l32.29,8.16,9.74-29.97-30.85-12.35c.84-3.49,1.6-7.01,2.27-10.57,.05-.25,.1-.51,.15-.76Zm-35.32-114.16l-65.68,21.34c-.65-1.52-1.31-3.03-2.02-4.52-.06-.13-.13-.27-.19-.4-.33-.7-.67-1.4-1.02-2.09-.2-.41-.41-.82-.61-1.22-.21-.41-.42-.81-.63-1.22-.36-.69-.72-1.37-1.09-2.05-.07-.13-.15-.26-.22-.4-.92-1.67-1.86-3.32-2.85-4.93l14.87-12.4-10.77-14.82-16.35,10.29c-1.35-1.59-2.75-3.15-4.19-4.68-.1-.11-.2-.22-.31-.33-.53-.56-1.07-1.12-1.61-1.67-.32-.33-.64-.65-.96-.98-.32-.32-.65-.64-.98-.97-.55-.54-1.11-1.08-1.67-1.61-.11-.1-.22-.21-.33-.31-1.39-1.3-2.8-2.58-4.23-3.81l10.31-16.39-14.82-10.77-12.37,14.84c-1.78-1.09-3.59-2.14-5.43-3.16-.13-.07-.26-.14-.39-.22-.68-.37-1.36-.73-2.05-1.09-.4-.21-.81-.42-1.22-.63-.41-.21-.82-.41-1.23-.62-.69-.34-1.39-.68-2.09-1.02-.14-.06-.27-.13-.41-.19-1.72-.81-3.46-1.59-5.21-2.32l4.74-18.77-17.42-5.66-7.18,17.94c-2.03-.49-4.08-.93-6.14-1.32-.15-.03-.3-.06-.44-.08-.76-.14-1.52-.28-2.28-.4-.45-.08-.9-.15-1.36-.22-.45-.07-.9-.14-1.36-.2-.77-.11-1.53-.22-2.3-.32-.15-.02-.3-.04-.45-.06-1.89-.24-3.78-.44-5.67-.6l-.74-11.1V58.21c76.83,3.86,147.18,52.14,176.34,127.16Zm-109.49,159.92l-24.44-33.64c17.8-17.42,26.28-43.13,21.08-68.58l39.43-12.81c10.61,42.98-4.35,87.08-36.07,115.03Zm-187.44-51.36c-6.79-20.9-7.34-42.32-2.69-62.26l39.49,12.83c-2.18,11.86-1.53,24.41,2.46,36.68,3.95,12.16,10.72,22.61,19.33,30.88l-24.42,33.61c-15.37-13.37-27.42-30.95-34.18-51.73Zm177.53-69.76c-11.29-22.42-32.91-37.27-56.95-40.52v-41.53c41.49,3.6,79.14,29.46,96.5,69.2l-39.55,12.85Zm-71.58,19.56c7.88-2.56,16.34,1.75,18.9,9.63,2.56,7.88-1.75,16.34-9.63,18.9-7.88,2.56-16.34-1.75-18.9-9.63-2.56-7.88,1.75-16.34,9.63-18.9Zm-5.36-60.05c-4.4,.6-8.81,1.57-13.18,2.99-20.28,6.59-35.82,21.01-44.39,38.82l-39.51-12.84c12.69-29.93,37.79-54.41,71.14-65.24,8.6-2.79,17.29-4.53,25.93-5.29v41.55Zm-25.84,140.18c17.46,9.5,38.63,12.1,59.02,5.47,4.66-1.51,9.06-3.45,13.19-5.74l24.39,33.57c-7.64,4.67-15.94,8.53-24.82,11.42-33.46,10.87-68.28,5.75-96.18-11.14l24.41-33.59Zm-25.96-256.07c17.19-5.58,34.58-8.7,51.8-9.57V124.91l-.16,2.37c-2.08,.16-4.16,.38-6.25,.64-.15,.02-.3,.04-.45,.06-.76,.1-1.53,.21-2.3,.32-.45,.07-.91,.13-1.36,.21-.45,.07-.9,.15-1.35,.22-.77,.13-1.53,.26-2.29,.41-.15,.03-.29,.06-.44,.08-1.87,.36-3.73,.75-5.58,1.18l-7.2-17.98-17.42,5.66,4.73,18.73c-1.93,.8-3.85,1.65-5.75,2.54-.13,.06-.27,.13-.4,.19-.7,.33-1.4,.67-2.09,1.02-.41,.2-.82,.41-1.22,.61-.41,.21-.81,.42-1.22,.63-.69,.36-1.37,.72-2.05,1.09-.13,.07-.26,.14-.39,.22-1.67,.92-3.32,1.86-4.94,2.85l-12.4-14.87-14.82,10.77,10.29,16.35c-1.59,1.35-3.15,2.75-4.68,4.19-.11,.1-.22,.21-.33,.31-.56,.53-1.12,1.07-1.67,1.61-.33,.32-.65,.64-.98,.96-.32,.32-.64,.65-.97,.98-.54,.55-1.08,1.11-1.61,1.67-.1,.11-.21,.22-.31,.33-1.31,1.39-2.58,2.8-3.81,4.23l-16.39-10.31-10.77,14.82,14.84,12.37c-1.09,1.78-2.14,3.59-3.16,5.43-.07,.13-.14,.26-.22,.39-.37,.68-.73,1.36-1.09,2.05-.21,.41-.42,.81-.63,1.22-.21,.41-.41,.82-.61,1.22-.35,.69-.68,1.39-1.02,2.09-.06,.14-.13,.27-.19,.41-.81,1.72-1.59,3.46-2.32,5.21l-10.24-2.59-55.66-18.08c20.83-54.52,65.23-99.5,125.06-118.94ZM67.79,319.8c-12.47-38.39-12.7-77.81-2.85-114.06l62.87,20.43,2.73,1.09c-.49,2.03-.93,4.08-1.32,6.15-.03,.15-.06,.29-.08,.44-.14,.76-.28,1.52-.4,2.29-.08,.45-.15,.9-.22,1.35-.07,.45-.14,.91-.21,1.36-.11,.76-.22,1.53-.32,2.29-.02,.15-.04,.3-.06,.45-.24,1.89-.44,3.78-.6,5.66l-19.32,1.29v18.32l19.28,1.29c.16,2.08,.38,4.17,.64,6.25,.02,.15,.04,.3,.06,.45,.1,.77,.21,1.53,.32,2.3,.07,.45,.13,.91,.21,1.36,.07,.45,.15,.9,.22,1.35,.13,.76,.26,1.53,.4,2.29,.03,.15,.06,.29,.08,.44,.36,1.87,.75,3.73,1.18,5.57l-17.98,7.2,5.66,17.42,18.73-4.73c.8,1.93,1.65,3.85,2.54,5.75,.06,.14,.13,.27,.19,.41,.33,.7,.67,1.39,1.02,2.09,.2,.41,.41,.82,.61,1.23,.21,.41,.42,.81,.63,1.22,.36,.69,.72,1.37,1.09,2.05,.07,.13,.15,.26,.22,.4,.92,1.67,1.86,3.32,2.85,4.93l-14.87,12.4,10.77,14.82,16.35-10.29c1.35,1.59,2.75,3.15,4.19,4.68,.1,.11,.21,.22,.31,.33,.53,.56,1.07,1.11,1.61,1.67,.32,.33,.64,.66,.97,.98,.32,.32,.65,.64,.98,.96,.55,.54,1.11,1.08,1.67,1.61,.11,.1,.22,.2,.33,.31,1.39,1.31,2.8,2.58,4.24,3.82l-3.61,5.74-36.62,50.4c-29.15-23.52-52.04-55.47-64.48-93.75Zm252.01,128.41c-59.95,19.48-122.42,9.11-171.36-22.9l36.64-50.43,4.3-5.15c1.78,1.09,3.59,2.14,5.43,3.16,.13,.07,.26,.14,.39,.22,.68,.37,1.36,.73,2.05,1.09,.4,.21,.81,.42,1.22,.63,.41,.21,.82,.41,1.23,.62,.69,.34,1.39,.68,2.09,1.02,.14,.06,.27,.13,.41,.19,1.72,.81,3.46,1.59,5.21,2.32l-4.74,18.77,17.42,5.66,7.18-17.94c2.03,.49,4.08,.93,6.14,1.32,.15,.03,.29,.06,.44,.08,.76,.14,1.52,.28,2.28,.4,.45,.08,.9,.15,1.36,.22,.45,.07,.9,.14,1.36,.2,.77,.11,1.53,.22,2.3,.32,.15,.02,.3,.04,.45,.06,1.89,.24,3.78,.44,5.67,.6l1.29,19.32h18.32l1.29-19.28c2.08-.16,4.17-.38,6.25-.64,.15-.02,.3-.04,.45-.06,.77-.1,1.53-.21,2.3-.32,.45-.07,.91-.13,1.36-.21,.45-.07,.9-.15,1.35-.22,.77-.13,1.53-.26,2.29-.4,.15-.03,.29-.06,.44-.08,1.87-.36,3.73-.75,5.58-1.18l7.2,17.98,17.42-5.66-4.73-18.73c1.93-.8,3.85-1.65,5.75-2.54,.13-.06,.27-.13,.4-.19,.7-.33,1.4-.67,2.09-1.02,.41-.2,.82-.41,1.22-.61,.41-.21,.81-.42,1.22-.63,.69-.36,1.37-.72,2.05-1.09,.13-.07,.26-.15,.4-.22,1.67-.92,3.32-1.86,4.93-2.85l12.4,14.87,.25-.18,29.29,40.31c-14.64,9.63-30.79,17.5-48.26,23.18Zm64.39-35l-40.61-55.89c1.4-1.21,2.79-2.45,4.15-3.73,.11-.1,.22-.2,.33-.31,.56-.53,1.12-1.07,1.67-1.61,.33-.32,.65-.64,.98-.96,.32-.32,.64-.65,.97-.98,.54-.55,1.08-1.11,1.61-1.67,.1-.11,.21-.22,.31-.33,1.31-1.39,2.58-2.8,3.81-4.23l16.39,10.31,10.77-14.82-14.84-12.37c1.09-1.78,2.14-3.59,3.16-5.43,.07-.13,.14-.26,.22-.39,.37-.68,.73-1.36,1.09-2.05,.21-.41,.42-.81,.63-1.22,.21-.41,.41-.82,.61-1.22,.35-.69,.68-1.39,1.02-2.09,.06-.13,.13-.27,.19-.41,.81-1.72,1.59-3.46,2.32-5.21l18.77,4.74,5.66-17.42-17.94-7.18c.49-2.03,.93-4.08,1.32-6.14,.03-.15,.06-.3,.08-.44,.14-.76,.28-1.52,.4-2.28,.08-.45,.15-.9,.22-1.36,.07-.45,.14-.9,.2-1.36,.11-.77,.22-1.53,.32-2.3,.02-.15,.04-.3,.06-.45,.24-1.89,.44-3.78,.6-5.67l19.32-1.29v-18.32l-19.28-1.29c-.16-2.08-.38-4.16-.64-6.25-.02-.15-.04-.3-.06-.45-.1-.77-.21-1.53-.32-2.3-.07-.45-.13-.91-.21-1.36-.07-.45-.15-.9-.22-1.35-.13-.77-.26-1.53-.41-2.29-.03-.15-.06-.29-.08-.44-.36-1.87-.75-3.73-1.18-5.58l17.98-7.2-.29-.89,47.37-15.39c21.9,78.43-6.3,159.92-66.46,208.86Z"/></g></g></svg>