<?xml version="1.0" encoding="UTF-8"?><svg xmlns="http://www.w3.org/2000/svg" viewBox="0 0 448.94 447.72"><defs><style>.d{fill:#eac75a;}</style></defs><g id="a"/><g id="b"><g id="c"><path class="d" d="M192.89,447.72c-21.27-3.04-41.95-9.12-61.47-18.05l20.82-45.46c15.15,6.94,31.21,11.66,47.73,14.02l-7.08,49.5Zm64.1-.63l-7.39-49.45c17.33-2.59,33.67-7.17,48.58-13.61l19.83,45.9c-18.88,8.16-39.42,13.93-61.02,17.16Zm115.67-51.12l-32.5-38c12.48-10.68,23.28-23.25,32.09-37.39l42.43,26.46c-11.52,18.47-25.65,34.93-42.02,48.93Zm-295.07-.98c-16.21-14.07-30.32-30.34-41.92-48.37l42.04-27.06c9.03,14.03,20.01,26.7,32.64,37.66l-32.77,37.76ZM9.05,288.37C3.05,267.86,0,246.54,0,225v-.47H50v.47c0,16.78,2.37,33.37,7.04,49.31l-47.98,14.06Zm431.31,0l-48.18-13.37c4.47-16.09,6.74-32.84,6.75-49.77l50,.05c-.02,21.43-2.91,42.66-8.58,63.09Zm-48.08-112.93c-4.49-16.32-11.16-31.69-19.83-45.66l42.5-26.35c11.18,18.04,19.77,37.8,25.54,58.74l-48.21,13.27Zm-335.14-.13l-47.95-14.17c6.08-20.56,15.08-40.14,26.77-58.2l41.98,27.16c-9.08,14.03-16.08,29.24-20.8,45.21Zm53.53-82.8l-32.68-37.84c16.27-14.05,34.41-25.67,53.91-34.55l20.71,45.51c-15.16,6.9-29.27,15.94-41.93,26.88Zm229.79-.2c-12.37-10.64-26.47-19.44-41.91-26.16l19.95-45.85c20.03,8.71,38.39,20.19,54.57,34.1l-32.61,37.91Zm-90.44-39.87c-8.22-1.25-16.81-2.06-25.52-2.42-8.08,.02-16.19,.6-24.12,1.71l-6.96-49.51c10.39-1.46,21.01-2.2,31.57-2.2l.99,.02c10.72,.42,21.33,1.42,31.53,2.97l-7.49,49.44Z"/><path class="d" d="M225,95c34.72,0,67.37,13.52,91.92,38.08,24.55,24.55,38.08,57.2,38.08,91.92s-13.52,67.37-38.08,91.92c-24.55,24.55-57.2,38.08-91.92,38.08s-67.37-13.52-91.92-38.08c-24.55-24.55-38.08-57.2-38.08-91.92s13.52-67.37,38.08-91.92c24.55-24.55,57.2-38.08,91.92-38.08m0-60c-104.93,0-190,85.07-190,190s85.07,190,190,190,190-85.07,190-190S329.93,35,225,35h0Z"/><path class="d" d="M225,176c27.02,0,49,21.98,49,49s-21.98,49-49,49-49-21.98-49-49,21.98-49,49-49m0-36c-46.94,0-85,38.06-85,85s38.06,85,85,85,85-38.06,85-85-38.06-85-85-85h0Z"/></g></g></svg>