<?xml version="1.0" encoding="UTF-8"?><svg xmlns="http://www.w3.org/2000/svg" viewBox="0 0 529 529"><defs><style>.d{fill:#eac75a;}</style></defs><g id="a"/><g id="b"><g id="c"><path class="d" d="M483.66,317.69c.34-1.4,.66-2.79,.98-4.2,.14-.64,.28-1.28,.42-1.92,.22-1.02,.43-2.05,.63-3.07,.21-1.03,.4-2.06,.59-3.09,.12-.64,.23-1.28,.35-1.92,.25-1.42,.48-2.84,.71-4.26,.04-.27,.08-.54,.12-.81,.39-2.58,.76-5.16,1.06-7.74l40.49-5.27v-40.83l-40.38-5.25c-.33-2.92-.72-5.83-1.16-8.75-.04-.27-.08-.54-.12-.81-.22-1.42-.46-2.84-.71-4.26-.11-.64-.23-1.28-.35-1.92-.19-1.03-.39-2.06-.59-3.09-.2-1.03-.42-2.05-.63-3.07-.14-.64-.27-1.28-.42-1.92-.31-1.41-.64-2.8-.98-4.2-.07-.27-.13-.54-.2-.8-.62-2.53-1.27-5.05-1.98-7.55l35.39-20.36-15.63-37.73-39.32,10.6c-1.42-2.57-2.9-5.11-4.42-7.64-.14-.23-.28-.47-.43-.7-.75-1.23-1.51-2.45-2.28-3.67-.35-.55-.7-1.1-1.06-1.65-.57-.88-1.14-1.75-1.73-2.62-.58-.87-1.17-1.74-1.76-2.6-.37-.54-.74-1.07-1.12-1.61-.83-1.18-1.67-2.35-2.51-3.51-.16-.22-.32-.44-.49-.66-1.54-2.1-3.11-4.18-4.72-6.21l24.91-32.35-28.87-28.87-32.27,24.84c-2.29-1.83-4.63-3.61-7.01-5.36-.22-.16-.44-.32-.66-.49-1.16-.85-2.33-1.69-3.51-2.51-.53-.38-1.07-.75-1.61-1.12-.86-.59-1.73-1.18-2.6-1.76-.87-.58-1.75-1.16-2.62-1.73-.55-.35-1.1-.71-1.65-1.06-1.22-.77-2.44-1.53-3.67-2.28-.23-.14-.47-.29-.7-.43-2.23-1.35-4.47-2.67-6.74-3.94l10.63-39.42-37.73-15.63-20.3,35.3c-2.82-.81-5.66-1.57-8.52-2.27-.27-.07-.54-.13-.8-.2-1.4-.34-2.79-.66-4.2-.98-.64-.14-1.28-.28-1.92-.42-1.02-.22-2.04-.43-3.07-.63-1.03-.21-2.06-.4-3.09-.59-.64-.12-1.28-.23-1.92-.35-1.42-.25-2.84-.48-4.27-.71-.27-.04-.54-.08-.81-.12-2.58-.39-5.16-.76-7.74-1.06L285.42,0h-40.83l-5.25,40.38c-2.92,.33-5.83,.72-8.75,1.16-.27,.04-.54,.08-.81,.12-1.42,.22-2.84,.46-4.27,.71-.64,.11-1.28,.23-1.92,.35-1.03,.19-2.06,.39-3.09,.59-1.03,.2-2.05,.42-3.07,.63-.64,.14-1.28,.27-1.92,.42-1.41,.31-2.8,.64-4.2,.98-.27,.07-.54,.13-.8,.2-2.53,.62-5.05,1.27-7.55,1.98l-20.36-35.39-37.73,15.63,10.6,39.32c-2.57,1.42-5.11,2.9-7.64,4.42-.23,.14-.47,.28-.7,.43-1.23,.75-2.45,1.51-3.67,2.28-.55,.35-1.1,.7-1.65,1.06-.88,.57-1.75,1.14-2.62,1.73-.87,.58-1.74,1.17-2.6,1.76-.54,.37-1.07,.74-1.61,1.12-1.18,.83-2.35,1.67-3.51,2.51-.22,.16-.44,.32-.66,.49-2.1,1.54-4.18,3.11-6.21,4.72l-32.35-24.91-28.87,28.87,24.84,32.27c-1.83,2.29-3.61,4.63-5.36,7.01-.16,.22-.32,.44-.49,.66-.85,1.16-1.69,2.33-2.51,3.51-.38,.53-.75,1.07-1.12,1.61-.59,.86-1.18,1.73-1.76,2.6-.58,.87-1.16,1.75-1.73,2.62-.35,.55-.71,1.1-1.06,1.65-.77,1.22-1.53,2.44-2.28,3.67-.14,.23-.28,.47-.43,.7-1.35,2.23-2.67,4.47-3.94,6.74l-39.42-10.63-15.63,37.73,35.3,20.3c-.81,2.82-1.57,5.66-2.27,8.52-.07,.27-.13,.54-.2,.8-.34,1.4-.66,2.79-.98,4.2-.14,.64-.28,1.28-.42,1.92-.22,1.02-.43,2.05-.63,3.07-.21,1.03-.4,2.06-.59,3.09-.12,.64-.23,1.28-.35,1.92-.25,1.42-.48,2.84-.71,4.26-.04,.27-.08,.54-.12,.81-.39,2.58-.76,5.16-1.06,7.74L0,243.58v40.83l40.38,5.25c.33,2.92,.72,5.83,1.16,8.75,.04,.27,.08,.54,.12,.81,.22,1.42,.46,2.84,.71,4.26,.11,.64,.23,1.28,.35,1.92,.19,1.03,.39,2.06,.59,3.09,.2,1.03,.42,2.05,.63,3.07,.14,.64,.27,1.28,.42,1.92,.31,1.41,.64,2.8,.98,4.2,.07,.27,.13,.54,.2,.8,.62,2.53,1.27,5.05,1.98,7.55l-35.39,20.36,15.63,37.73,39.32-10.6c1.42,2.57,2.9,5.11,4.42,7.64,.14,.23,.28,.47,.43,.7,.75,1.23,1.51,2.45,2.28,3.67,.35,.55,.7,1.1,1.06,1.65,.57,.88,1.14,1.75,1.73,2.62,.58,.87,1.17,1.74,1.76,2.6,.37,.54,.74,1.07,1.12,1.61,.83,1.18,1.67,2.35,2.51,3.51,.16,.22,.32,.44,.49,.66,1.54,2.1,3.11,4.18,4.72,6.21l-24.91,32.35,28.87,28.87,32.27-24.84c2.29,1.83,4.63,3.61,7.01,5.36,.22,.16,.44,.32,.66,.49,1.16,.85,2.33,1.69,3.51,2.51,.53,.38,1.07,.75,1.61,1.12,.86,.59,1.73,1.18,2.6,1.76,.87,.58,1.75,1.16,2.62,1.73,.55,.35,1.1,.71,1.65,1.06,1.22,.77,2.44,1.53,3.67,2.28,.23,.14,.47,.29,.7,.43,2.23,1.35,4.47,2.67,6.74,3.94l-10.63,39.42,37.73,15.63,20.3-35.3c2.82,.81,5.66,1.57,8.52,2.27,.27,.07,.54,.13,.8,.2,1.4,.34,2.79,.66,4.2,.98,.64,.14,1.28,.28,1.92,.42,1.02,.22,2.05,.43,3.07,.63,1.03,.21,2.06,.4,3.09,.59,.64,.12,1.28,.23,1.92,.35,1.42,.25,2.84,.48,4.26,.71,.27,.04,.54,.08,.81,.12,2.58,.39,5.16,.76,7.74,1.06l5.27,40.49h40.83l5.25-40.38c2.92-.33,5.83-.72,8.75-1.16,.27-.04,.54-.08,.81-.12,1.42-.22,2.84-.46,4.26-.71,.64-.11,1.28-.23,1.92-.35,1.03-.19,2.06-.39,3.09-.59,1.03-.2,2.05-.42,3.07-.63,.64-.14,1.28-.27,1.92-.42,1.41-.31,2.8-.64,4.2-.98,.27-.07,.54-.13,.8-.2,2.53-.62,5.05-1.27,7.55-1.98l20.36,35.39,37.73-15.63-10.6-39.32c2.57-1.42,5.11-2.9,7.64-4.42,.23-.14,.47-.28,.7-.43,.57-.35,1.13-.7,1.69-1.05l.4,.55,20.65-15,32.14,24.74,28.87-28.87-24.84-32.27c1.83-2.29,3.61-4.63,5.36-7.01,.16-.22,.32-.44,.49-.66,.85-1.16,1.69-2.33,2.51-3.51,.38-.53,.75-1.07,1.12-1.61,.59-.86,1.18-1.73,1.76-2.6,.58-.87,1.16-1.75,1.73-2.62,.35-.55,.71-1.1,1.06-1.65,.77-1.22,1.53-2.44,2.28-3.67,.14-.23,.29-.47,.43-.7,1.35-2.23,2.67-4.47,3.94-6.74l39.42,10.63,15.63-37.73-35.3-20.3c.81-2.82,1.57-5.66,2.27-8.52,.07-.27,.13-.54,.2-.8Zm-31.76-123.17l-95.3,30.97c-13.28-31.31-42.05-54.45-76.7-59.8V65.08c79.11,6.03,145.34,58.08,172,129.43ZM249.9,65.03v100.53c-32.82,4.8-60.46,25.54-74.81,54.11l-95.67-31.08c28.14-68.53,93.22-117.99,170.48-123.56ZM64.5,264.5c0-16.32,1.97-32.18,5.66-47.37l95.67,31.08c-.87,5.3-1.33,10.74-1.33,16.29,0,28.19,11.67,53.66,30.44,71.83l-59.07,81.3c-43.63-36.69-71.37-91.67-71.37-153.14Zm200,200c-38.22,0-73.93-10.72-104.29-29.32l59.16-81.43c13.56,6.87,28.89,10.75,45.13,10.75s31.36-3.82,44.85-10.6l59.18,81.45c-30.31,18.49-65.92,29.15-104.02,29.15Zm128.39-46.66l-59.06-81.28c18.9-18.19,30.67-43.75,30.67-72.06,0-3.33-.17-6.63-.49-9.88l96.24-31.27c2.78,13.28,4.25,27.04,4.25,41.15,0,61.58-27.84,116.65-71.61,153.34Z"/></g></g></svg>