<?xml version="1.0" encoding="UTF-8"?><svg xmlns="http://www.w3.org/2000/svg" xmlns:xlink="http://www.w3.org/1999/xlink" viewBox="0 0 450 450"><defs><style>.f{fill:#eac75a;}.g{clip-path:url(#e);}.h{clip-path:url(#d);}.i{fill:none;}</style><clipPath id="d"><path class="i" d="M450,225c0,124.26-100.74,225-225,225S0,349.26,0,225,100.74,0,225,0s225,100.74,225,225ZM225,125c-55.23,0-100,44.77-100,100s44.77,100,100,100,100-44.77,100-100-44.77-100-100-100Z"/></clipPath><clipPath id="e"><circle class="i" cx="225" cy="225" r="225"/></clipPath></defs><g id="a"/><g id="b"><g id="c"><g class="h"><g class="g"><path class="f" d="M485.08,135c1,3-2,5-4,6-20,2-39-1-59,3-12,3-25,4-33,14,0,1-2,2-1,4,1,1,1,3,2,4,15,14,32,23,48,36,15,12,27,25,39,39,1,1,0,2,1,3,8,10,17,21,17,34-6,6-13-2-19-4-2-1-4-2-5-4-4-3-9-4-13-6-18-9-38-22-58-15-4,2-3,7-1,10,18,45,43,91,36,142-1,2-2,6-5,6-3-1-5-3-7-6-8-14-15-28-25-41-3-3-5-7-8-10-8-7-15-18-27-16-5,1-5,7-6,11-3,37-6,73-20,107-5,12-10,24-21,33-3,2-6-1-7-4-4-31,6-67-18-91-4-5-8,1-12,5-20,27-37,53-63,75-3,3-6,6-10,8-11,8-21,17-34,17,0,0-1-1-2-1v-5c9-19,21-36,28-56,3-11,8-23,2-33-2-5-10-2-15,1-10,4-21,8-31,14-10,5-21,8-32,12-23,7-46,12-70,9-2-1-4-2-6-2s-1-3-3-3c0-3,3-5,5-7,18-11,37-19,52-34,7-8,19-17,15-29-5-4-12-4-18-4-35-3-70-7-102-22-11-5-23-8-30-19-1-3,1-6,4-7,20-2,39,1,59-3,12-3,28-4,34-17-1-1-1-2-1-3-18-18-41-30-60-47-1-2-3-4-5-5-1-1-1-2-2-3s-2-1-3-2-1-2-2-3-2-1-3-2c-2-3-4-5-6-8-1-1-2-1-3-2-9-12-17-23-22-37,0-2-1-4,0-5,4-6,10,0,15,3,18,9,36,20,56,26,8,2,16,4,24,0,3-2,3-6,2-9-10-27-24-51-32-80v-4c-1-4-3-8-3-13,0-2-2-4-2-6-1-15-5-30,2-44,2-4,6,0,8,2,13,21,23,42,41,59,6,5,12,12,21,10,1,0,1-1,2-1l3-6c4-25,4-47,9-72,3-14,7-26,12-39,5-12,10-24,21-33,2-1,5,0,6,2,5,31-3,62,14,90,2,2,4,4,6,5,3,1,5-2,7-3,14-16,24-34,37-50,3-2,4-5,7-8,2-1,4-3,5-5,1-1,2-1,3-2s1-2,2-3,2-1,3-2,1-2,2-3c3-2,5-4,8-6,3-3,6-6,10-8,9-8,18-13,28-17,3-1,7-1,8,2,1,6-4,11-6,17l-3,3c-9,17-18,34-22,53-2,7-5,17,2,22,2,1,5,0,7,0,13-5,25-11,38-17,32-14,66-24,102-21,2,1,5,2,7,3,3,3,0,7-3,9-19,11-36,20-52,34-8,8-18,16-16,28l3,3c3,1,6,1,9,2,36,3,72,6,106,20,12,6,25,11,33,22h0Z"/></g><circle class="f" cx="225" cy="225" r="200"/></g></g></g></svg>